<svg width="40" height="52" viewBox="0 0 40 52" fill="none" xmlns="http://www.w3.org/2000/svg">
<path fill-rule="evenodd" clip-rule="evenodd" d="M8.04778 51.508H7.41255C3.33819 51.508 0.0234375 48.1932 0.0234375 44.1189C0.0234375 40.0445 3.33819 36.7298 7.41255 36.7298H12.4278V31.959H15.4369V36.7298H26.4035C29.2773 36.7298 31.6619 34.9495 32.3372 32.2998L35.2531 33.0429C34.2324 37.048 30.676 39.7389 26.4035 39.7389H15.4368V44.1189C15.4368 48.1932 12.1221 51.508 8.04778 51.508ZM7.41245 39.7389C4.99732 39.7389 3.03246 41.7037 3.03246 44.1189C3.03246 46.534 4.99732 48.4989 7.41245 48.4989H8.04768C10.4628 48.4989 12.4277 46.534 12.4277 44.1189V39.7389H7.41245Z" fill="#7EDCE2"/>
<path fill-rule="evenodd" clip-rule="evenodd" d="M32.337 32.2998C31.6617 34.9495 29.2772 36.7298 26.4033 36.7298H15.4367V31.959H13.8652V48.6662C14.8483 47.4113 15.4367 45.8329 15.4367 44.1188V39.7388H26.4033C30.6758 39.7388 34.2322 37.0479 35.2529 33.0428L32.337 32.2998Z" fill="#16BDCA"/>
<circle cx="34.0943" cy="28.94" r="3.74466" fill="#00317E"/>
<path d="M34.0928 23.6914C36.9872 23.6914 39.3416 26.0461 39.3418 28.9404C39.3419 31.8349 36.9873 34.1904 34.0928 34.1904C31.1985 34.1903 28.8438 31.8347 28.8438 28.9404C28.8439 26.0462 31.1986 23.6915 34.0928 23.6914ZM33.8643 26.7119C32.7362 26.8268 31.8527 27.7825 31.8525 28.9404C31.8525 30.1755 32.8577 31.1806 34.0928 31.1807C35.328 31.1807 36.333 30.1756 36.333 28.9404C36.3329 27.7053 35.3279 26.7002 34.0928 26.7002L33.8643 26.7119Z" fill="#FFDAAA"/>
<path d="M13.8646 33.4635C6.45332 33.4635 0.423828 27.434 0.423828 20.0228V6.79164C0.423828 4.12906 2.59 1.96289 5.25247 1.96289H6.7123V4.97202H5.25247C4.24923 4.97202 3.43296 5.78829 3.43296 6.79164V20.0228C3.43296 25.7748 8.11255 30.4544 13.8646 30.4544C19.6166 30.4544 24.2962 25.7748 24.2962 20.0228V6.97319C24.2962 5.96994 23.48 5.15367 22.4767 5.15367H20.989V2.14454H22.4767C25.1392 2.14454 27.3054 4.31071 27.3054 6.97319V20.0228C27.3054 27.4339 21.2758 33.4635 13.8646 33.4635Z" fill="#FFE7C8"/>
<path d="M22.4774 2.14453H20.9896V5.15366H22.4774C23.4806 5.15366 24.2969 5.96993 24.2969 6.97318V20.0228C24.2969 25.7748 19.6173 30.4544 13.8652 30.4544V33.4635C21.2765 33.4635 27.306 27.434 27.306 20.0228V6.97318C27.3061 4.3106 25.1399 2.14453 22.4774 2.14453Z" fill="#FFE7C8"/>
<path fill-rule="evenodd" clip-rule="evenodd" d="M18.6498 0.308594C16.9076 0.308594 15.4902 1.72599 15.4902 3.46818C15.4902 5.21036 16.9076 6.62776 18.6498 6.62776H21.7425V0.308594H18.6498Z" fill="#7EDCE2"/>
<path fill-rule="evenodd" clip-rule="evenodd" d="M9.05362 0.308594H5.96094V6.62776H9.05362C10.7958 6.62776 12.2132 5.21036 12.2132 3.46818C12.2132 1.72599 10.7959 0.308594 9.05362 0.308594Z" fill="#7EDCE2"/>
</svg>
