<svg width="31" height="44" viewBox="0 0 31 44" fill="none" xmlns="http://www.w3.org/2000/svg">
<path fill-rule="evenodd" clip-rule="evenodd" d="M31 12.1174V39.4269C31 41.4651 29.3477 43.1174 27.3095 43.1174H3.69048C1.65228 43.1174 0 41.4651 0 39.4269V12.1174C0 10.0792 1.65228 8.42693 3.69048 8.42693C4.4738 8.42791 5.22532 8.11717 5.77921 7.56328C6.3331 7.00939 6.64384 6.25787 6.64286 5.47455V3.06836H24.3571V5.47455C24.3562 6.25787 24.6669 7.00939 25.2208 7.56328C25.7747 8.11717 26.5262 8.42791 27.3095 8.42693C28.2892 8.42398 29.2296 8.81185 29.9223 9.50459C30.6151 10.1973 31.003 11.1377 31 12.1174Z" fill="#16BDCA"/>
<rect x="3.69141" y="0.308594" width="23.619" height="5.16667" rx="1.47619" fill="#C7E7FF"/>
<path fill-rule="evenodd" clip-rule="evenodd" d="M0 15.0703H31V36.4751H0V15.0703Z" fill="#9EE5FF"/>
<path d="M23.2202 32.4532C23.1981 33.0732 23.1538 33.4349 23.1538 33.4349C23.1538 33.4349 22.7921 33.4792 22.1869 33.5013C19.9652 33.6046 14.4443 33.4718 11.1228 30.1503C6.89354 25.9211 7.84568 18.1194 7.84568 18.1194C7.84568 18.1194 15.6474 17.1746 19.8766 21.4039C23.1907 24.718 23.3235 30.2315 23.2202 32.4532Z" fill="#FFDAAA"/>
<path d="M23.2204 32.4531C23.1983 33.0731 23.154 33.4348 23.154 33.4348C23.154 33.4348 22.7923 33.4791 22.1871 33.5012L15.2637 26.5779L14.009 25.3231L11.1526 22.4667C10.9419 22.2863 10.8502 22.0031 10.915 21.7335C10.9799 21.4638 11.1904 21.2533 11.46 21.1885C11.7297 21.1236 12.0129 21.2154 12.1933 21.426L17.7806 27.0134L19.0354 28.2681L23.2204 32.4531Z" fill="#FFFAF3"/>
<path d="M12.7641 27.0608C12.3835 27.0631 12.0635 26.7755 12.0253 26.3968C11.987 26.0181 12.2431 25.6724 12.6165 25.5986L14.8684 25.1484L15.3187 22.8964C15.371 22.6372 15.5577 22.4256 15.8083 22.3413C16.059 22.2571 16.3356 22.3129 16.5339 22.4879C16.7322 22.6628 16.8221 22.9302 16.7698 23.1895L16.2228 25.9204C16.1643 26.2124 15.9361 26.4406 15.6442 26.4991L12.9132 27.046C12.8641 27.0558 12.8142 27.0607 12.7641 27.0608Z" fill="#FFFAF3"/>
<path d="M15.5004 29.7955C15.1198 29.7978 14.7998 29.5102 14.7616 29.1315C14.7234 28.7528 14.9794 28.4071 15.3528 28.3333L17.6048 27.883L18.055 25.6311C18.1034 25.3694 18.2891 25.154 18.5408 25.0674C18.7926 24.9809 19.0714 25.0366 19.2706 25.2133C19.4697 25.39 19.5583 25.6602 19.5024 25.9205L18.9555 28.6514C18.897 28.9434 18.6688 29.1716 18.3768 29.2301L15.6481 29.7807C15.5995 29.7905 15.55 29.7954 15.5004 29.7955Z" fill="#FFFAF3"/>
<path d="M16.2379 3.26153V5.47582H14.7617V3.26153C14.7617 2.85389 15.0922 2.52344 15.4998 2.52344C15.9075 2.52344 16.2379 2.85389 16.2379 3.26153Z" fill="#F2F4F7"/>
<path d="M13.2848 3.26153V5.47582H11.8086V3.26153C11.8086 2.85389 12.1391 2.52344 12.5467 2.52344C12.9543 2.52344 13.2848 2.85389 13.2848 3.26153Z" fill="#F2F4F7"/>
<path d="M10.3336 3.26153V5.47582H8.85742V3.26153C8.85742 2.85389 9.18788 2.52344 9.59552 2.52344C10.0032 2.52344 10.3336 2.85389 10.3336 3.26153Z" fill="#F2F4F7"/>
<path d="M7.38049 3.26153V5.47582H5.9043V3.26153C5.9043 2.85389 6.23475 2.52344 6.64239 2.52344C7.05003 2.52344 7.38049 2.85389 7.38049 3.26153Z" fill="#F2F4F7"/>
<path d="M19.1891 3.26153V5.47582H17.7129V3.26153C17.7129 2.85389 18.0433 2.52344 18.451 2.52344C18.8586 2.52344 19.1891 2.85389 19.1891 3.26153Z" fill="#F2F4F7"/>
<path d="M22.1422 3.26153V5.47582H20.666V3.26153C20.666 2.85389 20.9965 2.52344 21.4041 2.52344C21.8117 2.52344 22.1422 2.85389 22.1422 3.26153Z" fill="#F2F4F7"/>
<path d="M25.0953 3.26153V5.47582H23.6191V3.26153C23.6191 2.85389 23.9496 2.52344 24.3572 2.52344C24.7649 2.52344 25.0953 2.85389 25.0953 3.26153Z" fill="#F2F4F7"/>
</svg>
