<svg width="31" height="44" viewBox="0 0 31 44" fill="none" xmlns="http://www.w3.org/2000/svg">
<path fill-rule="evenodd" clip-rule="evenodd" d="M31 15.9027V40.1372C31 42.0439 29.4579 43.5896 27.5556 43.5896H3.44444C1.54212 43.5896 0 42.0439 0 40.1372V15.9027C0 13.9756 1.08232 12.2126 2.79863 11.344C4.51494 10.4755 5.59726 8.71245 5.59726 6.78534V5.87109H25.4028V6.78543C25.4028 8.71254 26.4851 10.4755 28.2015 11.3441C29.9177 12.2125 31 13.9755 31 15.9027Z" fill="#7EDCE2"/>
<path fill-rule="evenodd" clip-rule="evenodd" d="M28.2022 11.344C26.4859 10.4755 25.4036 8.71245 25.4036 6.78534V5.87109H22.8203V6.78534C22.8203 8.71245 23.9026 10.4754 25.6189 11.344C27.3353 12.2125 28.4176 13.9755 28.4176 15.9026V40.1371C28.4176 42.0438 26.8754 43.5895 24.9731 43.5895H27.5564C29.4588 43.5896 31.0009 42.0439 31.0009 40.1372V15.9027C31.0009 13.9756 29.9186 12.2125 28.2022 11.344Z" fill="#16BDCA"/>
<path d="M27.4112 1.39904V5.29206C27.4112 5.68283 27.1029 5.9997 26.7209 5.9997H4.28022C3.89817 5.9997 3.58984 5.68283 3.58984 5.29206V1.39904C3.58984 1.00828 3.89817 0.691406 4.28022 0.691406H26.7209C27.1029 0.691406 27.4112 1.00828 27.4112 1.39904Z" fill="#F2F4F7"/>
<path fill-rule="evenodd" clip-rule="evenodd" d="M26.7202 0.691406H24.1309C24.5122 0.691406 24.8213 1.00828 24.8213 1.39921V5.29206C24.8213 5.68299 24.5122 5.99986 24.1309 5.99986H26.7202C27.1016 5.99986 27.4107 5.68299 27.4107 5.29206V1.39921C27.4107 1.00828 27.1015 0.691406 26.7202 0.691406Z" fill="#16BDCA"/>
<path fill-rule="evenodd" clip-rule="evenodd" d="M0 17.9961H31V38.5385H0V17.9961Z" fill="#16BDCA"/>
<path fill-rule="evenodd" clip-rule="evenodd" d="M28.416 17.9961H30.9993V38.5385H28.416L28.416 17.9961Z" fill="#7EDCE2"/>
<path d="M14.2547 24.8603C13.0531 23.6507 11.1048 23.6507 9.90317 24.8603C8.70155 23.6507 6.75324 23.6507 5.55161 24.8603C4.34998 26.0698 4.34998 28.0307 5.55161 29.2402C5.55161 29.2402 9.72564 33.6202 9.90317 33.6202C10.0807 33.6202 14.2547 29.2402 14.2547 29.2402C15.4564 28.0307 15.4564 26.0697 14.2547 24.8603Z" fill="#FFDAAA"/>
<path d="M6.89348 0.691406V3.34601C6.89348 3.70159 6.61196 3.99014 6.2651 3.99014C5.91823 3.99014 5.63672 3.70159 5.63672 3.34601V0.691406H6.89348Z" fill="#7EDCE2"/>
<path d="M9.9716 0.691406V3.34601C9.9716 3.70159 9.69092 3.99014 9.34322 3.99014C8.99636 3.99014 8.71484 3.70159 8.71484 3.34601V0.691406H9.9716Z" fill="#7EDCE2"/>
<path d="M13.0517 0.691406V3.34601C13.0517 3.70159 12.7702 3.99014 12.4233 3.99014C12.0756 3.99014 11.7949 3.70159 11.7949 3.34601V0.691406H13.0517Z" fill="#7EDCE2"/>
<path d="M16.1298 0.691406V3.34601C16.1298 3.70159 15.8483 3.99014 15.5014 3.99014C15.1546 3.99014 14.873 3.70159 14.873 3.34601V0.691406H16.1298Z" fill="#7EDCE2"/>
<path d="M19.2079 0.691406V3.34601C19.2079 3.70159 18.9273 3.99014 18.5796 3.99014C18.2327 3.99014 17.9512 3.70159 17.9512 3.34601V0.691406H19.2079Z" fill="#7EDCE2"/>
<path d="M22.2861 0.691406V3.34601C22.2861 3.70159 22.0045 3.99014 21.6577 3.99014C21.31 3.99014 21.0293 3.70159 21.0293 3.34601V0.691406H22.2861Z" fill="#7EDCE2"/>
<path d="M25.3642 0.691406V3.34601C25.3642 3.70159 25.0827 3.99014 24.7358 3.99014C24.3889 3.99014 24.1074 3.70159 24.1074 3.34601V0.691406H25.3642Z" fill="#7EDCE2"/>
<path d="M24.7992 25.0738H19.3772C18.663 25.0738 18.084 24.4949 18.084 23.7806V23.7776C18.084 23.0634 18.6629 22.4844 19.3772 22.4844H24.7992C25.5133 22.4844 26.0924 23.0633 26.0924 23.7776V23.7806C26.0924 24.4949 25.5133 25.0738 24.7992 25.0738Z" fill="#FFE7C8"/>
<path d="M24.7992 29.8218H19.3772C18.663 29.8218 18.084 29.2429 18.084 28.5286V28.5256C18.084 27.8115 18.6629 27.2324 19.3772 27.2324H24.7992C25.5133 27.2324 26.0924 27.8114 26.0924 28.5256V28.5286C26.0924 29.2429 25.5133 29.8218 24.7992 29.8218Z" fill="#FFDAAA"/>
<path d="M24.7992 34.6539H19.3772C18.663 34.6539 18.084 34.0749 18.084 33.3607V33.3577C18.084 32.6435 18.6629 32.0645 19.3772 32.0645H24.7992C25.5133 32.0645 26.0924 32.6434 26.0924 33.3577V33.3607C26.0924 34.0749 25.5133 34.6539 24.7992 34.6539Z" fill="#FFE7C8"/>
</svg>
