<svg width="42" height="41" viewBox="0 0 42 41" fill="none" xmlns="http://www.w3.org/2000/svg">
<path fill-rule="evenodd" clip-rule="evenodd" d="M39.1882 12.5294C38.9043 6.08921 33.2755 0.527606 26.8325 0.315706C24.8514 0.250506 22.9672 0.635906 21.274 1.37701C20.4628 1.73211 19.539 1.73211 18.7278 1.37701C17.0347 0.635906 15.1504 0.250506 13.1693 0.315706C6.72627 0.527606 1.09757 6.08921 0.813566 12.5294C0.636966 16.5351 2.30247 20.1568 5.03387 22.6187C6.39827 23.8485 7.20087 25.5819 7.20087 27.4187V33.7086C7.20087 37.2432 10.0663 40.1086 13.6009 40.1086C14.4846 40.1086 15.2009 39.3923 15.2009 38.5086V32.3086C15.2009 29.6576 17.3499 27.5086 20.0009 27.5086C22.6519 27.5086 24.8009 29.6576 24.8009 32.3086V38.5086C24.8009 39.3922 25.5172 40.1086 26.4009 40.1086C29.9355 40.1086 32.8009 37.2432 32.8009 33.7086V27.4187C32.8009 25.5819 33.6035 23.8485 34.9679 22.6187C37.6993 20.1568 39.3648 16.5351 39.1882 12.5294Z" fill="#7EDCE2"/>
<path fill-rule="evenodd" clip-rule="evenodd" d="M39.188 12.5294C38.9041 6.08919 33.2753 0.527586 26.8323 0.315686C25.8474 0.283286 24.8864 0.362486 23.9609 0.541186C29.5609 1.66469 34.1328 6.74179 34.3879 12.5294C34.5645 16.5351 32.899 20.1568 30.1676 22.6187C28.8032 23.8485 28.0006 25.5819 28.0006 27.4187V33.7086C28.0006 36.018 26.7771 38.0411 24.9433 39.1666C25.1944 39.7217 25.7518 40.1086 26.4006 40.1086C29.9352 40.1086 32.8006 37.2432 32.8006 33.7086V27.4187C32.8006 25.5819 33.6032 23.8485 34.9676 22.6187C37.6991 20.1568 39.3646 16.5351 39.188 12.5294Z" fill="#16BDCA"/>
<circle cx="10.3996" cy="9.90938" r="4.8" fill="#FFDAAA"/>
<path d="M36.8 2.70898C36.3582 2.70898 36 3.06718 36 3.50898V5.10898H37.6V3.50898C37.6 3.06718 37.2418 2.70898 36.8 2.70898Z" fill="#FFE7C8"/>
<path d="M37.6 6.70898H36V8.30898C36 8.75078 36.3582 9.10898 36.8 9.10898C37.2418 9.10898 37.6 8.75078 37.6 8.30898V6.70898Z" fill="#FFE7C8"/>
<path d="M33.5996 5.90938C33.5996 6.35118 33.9578 6.70938 34.3996 6.70938H35.9996V5.10938H34.3996C33.9578 5.10938 33.5996 5.46758 33.5996 5.90938Z" fill="#FFE7C8"/>
<path d="M37.5996 5.10938V6.70938H39.1996C39.6414 6.70938 39.9996 6.35118 39.9996 5.90938C39.9996 5.46758 39.6414 5.10938 39.1996 5.10938H37.5996Z" fill="#FFE7C8"/>
<path d="M3.20039 23.5078C2.75859 23.5078 2.40039 23.866 2.40039 24.3078V25.9078H4.00039V24.3078C4.00039 23.866 3.64219 23.5078 3.20039 23.5078Z" fill="#FFE7C8"/>
<path d="M4.00039 27.5078H2.40039V29.1078C2.40039 29.5496 2.75859 29.9078 3.20039 29.9078C3.64219 29.9078 4.00039 29.5496 4.00039 29.1078V27.5078Z" fill="#FFE7C8"/>
<path d="M0 26.7082C0 27.15 0.3582 27.5082 0.8 27.5082H2.4V25.9082H0.8C0.3582 25.9082 0 26.2664 0 26.7082Z" fill="#FFE7C8"/>
<path d="M4 25.9082V27.5082H5.6C6.0418 27.5082 6.4 27.15 6.4 26.7082C6.4 26.2664 6.0418 25.9082 5.6 25.9082H4Z" fill="#FFE7C8"/>
<path d="M38.3996 29.9082C37.9578 29.9082 37.5996 30.2664 37.5996 30.7082V32.3082H39.1996V30.7082C39.1996 30.2664 38.8414 29.9082 38.3996 29.9082Z" fill="#FFE7C8"/>
<path d="M39.1996 33.9082H37.5996V35.5082C37.5996 35.95 37.9578 36.3082 38.3996 36.3082C38.8414 36.3082 39.1996 35.95 39.1996 35.5082V33.9082Z" fill="#FFE7C8"/>
<path d="M35.1992 33.1086C35.1992 33.5504 35.5574 33.9086 35.9992 33.9086H37.5992V32.3086H35.9992C35.5574 32.3086 35.1992 32.6668 35.1992 33.1086Z" fill="#FFE7C8"/>
<path d="M39.1992 32.3086V33.9086H40.7992C41.241 33.9086 41.5992 33.5504 41.5992 33.1086C41.5992 32.6668 41.241 32.3086 40.7992 32.3086H39.1992Z" fill="#FFE7C8"/>
</svg>
