<svg width="34" height="43" viewBox="0 0 34 43" fill="none" xmlns="http://www.w3.org/2000/svg">
<path fill-rule="evenodd" clip-rule="evenodd" d="M28.8122 28.6185L21.25 26.5176H17H12.75L5.18783 28.6185C2.12146 29.4699 0 32.2615 0 35.4433V42.8092H17H34V35.4433C34 32.2615 31.8785 29.4699 28.8122 28.6185Z" fill="#7EDCE2"/>
<path d="M5.66602 38.5586H7.08268V42.8086H5.66602V38.5586Z" fill="#047481"/>
<path d="M26.916 38.5586H28.3327V42.8086H26.916V38.5586Z" fill="#047481"/>
<path d="M16.9984 32.1842C19.9918 32.1842 22.4448 29.8489 22.6452 26.9057L21.2484 26.5176H16.9984H12.7484L11.3516 26.9057C11.552 29.8489 14.005 32.1842 16.9984 32.1842Z" fill="#047481"/>
<path d="M21.25 21.5586V26.5169C21.25 28.8643 19.3474 30.7669 17 30.7669C14.6526 30.7669 12.75 28.8643 12.75 26.5169V21.5586H21.25Z" fill="#FFDAAA"/>
<path d="M26.0902 11.0519V16.0102C26.0902 21.0302 22.0209 25.1003 17.0002 25.1003C11.9795 25.1003 7.91016 21.0302 7.91016 16.0102V11.0519C7.91016 9.22651 9.38986 7.74609 11.2159 7.74609H22.7852C24.6105 7.74609 26.0902 9.2258 26.0902 11.0519Z" fill="#FFDAAA"/>
<path fill-rule="evenodd" clip-rule="evenodd" d="M22.7859 2.78776H22.669C22.2999 1.36472 21.0186 0.308594 19.4801 0.308594H16.1743C13.4706 0.308594 11.0707 1.60697 9.5627 3.61368C8.52499 4.99493 7.91016 6.71193 7.91016 8.57272V16.0102L9.5627 11.0519H19.4794C21.0179 11.0519 22.2992 9.99576 22.6683 8.57272H23.1124C23.8873 8.57272 24.5581 9.11105 24.726 9.86684L26.0909 16.0102V6.09355C26.0909 4.26747 24.6112 2.78776 22.7859 2.78776Z" fill="#16BDCA"/>
<path d="M26.0898 11.0527H26.6183C27.6397 11.0527 28.4167 11.97 28.2488 12.9773L27.9733 14.6298C27.8401 15.4267 27.1509 16.0111 26.3427 16.0111H26.0898V11.0527Z" fill="#FFDAAA"/>
<path d="M7.9104 11.0527H7.38198C6.36057 11.0527 5.58353 11.97 5.7514 12.9773L6.02694 14.6298C6.16011 15.4267 6.84932 16.0111 7.65753 16.0111H7.9104V11.0527Z" fill="#FFDAAA"/>
<path d="M25.7182 11.2884H26.0872V10.5801H25.2812L22.5406 16.0605C21.4059 16.2701 19.2589 16.6009 16.9993 16.6009C14.7397 16.6009 12.5928 16.2701 11.4587 16.0605L8.71819 10.5801H7.91211V11.2884H8.28115L10.6243 15.9762V20.5102L8.72953 16.2467H7.9284V16.9551H8.2684L10.6243 22.2541V22.7762C10.6243 23.3492 10.9707 23.8691 11.4998 24.0901C13.5979 24.9642 15.5649 25.1009 16.9993 25.1009C18.4337 25.1009 20.4007 24.9642 22.4988 24.0901C23.0279 23.8698 23.3743 23.3492 23.3743 22.7762V22.2541L25.7295 16.9551H26.0695V16.2467H25.2684L23.3743 20.5102V15.9762L25.7182 11.2884Z" fill="#FFF3E4"/>
</svg>
