<svg width="27" height="52" viewBox="0 0 27 52" fill="none" xmlns="http://www.w3.org/2000/svg">
<path fill-rule="evenodd" clip-rule="evenodd" d="M13.5 0.308594C6.06016 0.308594 0 6.46836 0 13.9086V38.0086C0 45.4484 6.06016 51.5086 13.5 51.5086C20.9398 51.5086 27 45.4484 27 38.0086V13.9086C27 6.46836 20.9398 0.308594 13.5 0.308594Z" fill="#7EDCE2"/>
<path fill-rule="evenodd" clip-rule="evenodd" d="M27 13.9086V38.0086C27 45.4484 20.9398 51.5086 13.5 51.5086V0.308594C20.9398 0.308594 27 6.46836 27 13.9086Z" fill="#16BDCA"/>
<path d="M22.95 12.4383C21.2402 8.77812 17.55 6.4082 13.5 6.4082C9.45 6.4082 5.75977 8.77812 4.05 12.4383C1.76992 12.648 0 14.568 0 16.9082C0 19.248 1.76992 21.168 4.05 21.3781C5.75977 25.0383 9.45 27.4082 13.5 27.4082C17.55 27.4082 21.2402 25.0383 22.95 21.3781C25.2301 21.168 27 19.248 27 16.9082C27 14.568 25.2301 12.648 22.95 12.4383Z" fill="#FFDAAA"/>
<path d="M27 16.9082C27 19.248 25.2301 21.168 22.95 21.3781C21.2402 25.0383 17.55 27.4082 13.5 27.4082V6.4082C17.55 6.4082 21.2402 8.77812 22.95 12.4383C25.2301 12.648 27 14.568 27 16.9082Z" fill="#FFE7C8"/>
<path d="M9 13.9082H12V16.9082H9V13.9082Z" fill="#68544F"/>
<path d="M15 13.9082H18V16.9082H15V13.9082Z" fill="#53433F"/>
<path d="M13.5 18.4082C11.0098 18.4082 9 20.418 9 22.9082C9 25.398 11.0098 27.4082 13.5 27.4082C15.9902 27.4082 18 25.398 18 22.9082C18 20.418 15.9902 18.4082 13.5 18.4082Z" fill="#FF8597"/>
<path d="M16.5 31.2578C15.3898 31.2578 14.3102 31.7078 13.5 32.5176C12.6898 31.7074 11.6102 31.2578 10.5 31.2578C7.98008 31.2578 6 33.3578 6 35.9977C6 39.3277 9.36016 41.6078 13.5 45.118C17.6699 41.5777 21 39.4176 21 35.9977C21 33.3578 19.0199 31.2578 16.5 31.2578Z" fill="#ECECF1"/>
<path d="M13.5 45.118V32.518C14.3102 31.7078 15.3898 31.2578 16.5 31.2578C19.0199 31.2578 21 33.3578 21 35.9977C21 39.4176 17.6699 41.5777 13.5 45.118Z" fill="#E2E2E7"/>
<path d="M18 22.9082C18 25.398 15.9902 27.4082 13.5 27.4082V18.4082C15.9902 18.4082 18 20.418 18 22.9082Z" fill="#FF6C6C"/>
</svg>
