<svg width="42" height="41" viewBox="0 0 42 41" fill="none" xmlns="http://www.w3.org/2000/svg">
<path fill-rule="evenodd" clip-rule="evenodd" d="M15.7725 0.128906C12.3695 0.128906 9.61086 2.88901 9.61086 6.2938C9.61086 6.32136 9.61259 6.34852 9.61291 6.37608C9.61226 6.37608 3.44925 9.1361 3.44925 12.5409C3.44925 13.7746 3.81289 14.9227 4.43674 15.8865C2.30418 16.856 0.820312 19.0041 0.820312 21.5005C0.820312 23.8789 2.16735 25.9414 4.13897 26.9694C3.6992 27.8179 3.44933 28.7807 3.44933 29.8025C3.44933 32.2099 4.82943 34.2936 6.84042 35.3086C7.46895 38.245 10.8606 40.4883 14.9509 40.4883C17.3176 40.4883 19.5009 39.6962 21 38.4944L20.9482 2.95136C19.8508 1.25364 17.9437 0.128906 15.7725 0.128906Z" fill="#7EDCE2"/>
<path fill-rule="evenodd" clip-rule="evenodd" d="M41.1801 21.5005C41.1801 19.0041 39.6962 16.856 37.5636 15.8865C38.1875 14.9227 38.5511 13.7746 38.5511 12.5409C38.5511 9.1361 32.3895 6.32145 32.3895 6.2938C32.3895 2.88901 29.6309 0.128906 26.2279 0.128906C24.0227 0.128906 22.0373 1.20877 20.9486 2.95136C20.9318 2.92437 20.9836 38.5081 21.0004 38.4944C22.5019 39.7201 24.656 40.4883 27.0495 40.4883C31.1398 40.4883 34.5314 38.245 35.1601 35.3086C37.171 34.2936 38.5511 32.2099 38.5511 29.8025C38.5511 28.7807 38.3012 27.8179 37.8614 26.9694C39.833 25.9413 41.1801 23.8789 41.1801 21.5005ZM26.9185 6.46886C28.0529 6.46886 28.9724 7.38892 28.9724 8.52382C28.9724 9.65872 28.0529 10.5788 26.9185 10.5788C25.7842 10.5788 24.8646 9.65872 24.8646 8.52382C24.8646 7.38892 25.7842 6.46886 26.9185 6.46886ZM24.2896 18.747C24.2896 17.6121 25.2092 16.692 26.3435 16.692C27.4778 16.692 28.3974 17.6121 28.3974 18.747C28.3974 19.8819 27.4778 20.8019 26.3435 20.8019C25.2092 20.8019 24.2896 19.8819 24.2896 18.747ZM27.5758 34.9398C26.4414 34.9398 25.5219 34.0198 25.5219 32.8849C25.5219 31.75 26.4414 30.8299 27.5758 30.8299C28.7101 30.8299 29.6297 31.75 29.6297 32.8849C29.6297 34.0199 28.7101 34.9398 27.5758 34.9398ZM32.1764 27.871C31.0421 27.871 30.1225 26.9509 30.1225 25.816C30.1225 24.6811 31.0421 23.761 32.1764 23.761C33.3107 23.761 34.2303 24.6811 34.2303 25.816C34.2303 26.951 33.3107 27.871 32.1764 27.871Z" fill="#16BDCA"/>
<ellipse cx="26.9173" cy="8.52363" rx="2.05406" ry="2.05488" fill="#FFE7C8"/>
<ellipse cx="32.1771" cy="25.8166" rx="2.05406" ry="2.05488" fill="#FFE7C8"/>
<ellipse cx="26.3431" cy="18.7463" rx="2.05406" ry="2.05488" fill="#FFE7C8"/>
<ellipse cx="11.9173" cy="10.5236" rx="2.05406" ry="2.05488" fill="#FFE7C8"/>
<ellipse cx="17.1771" cy="27.8166" rx="2.05406" ry="2.05488" fill="#FFE7C8"/>
<ellipse cx="11.3431" cy="20.7463" rx="2.05406" ry="2.05488" fill="#FFE7C8"/>
<ellipse cx="27.5755" cy="32.885" rx="2.05406" ry="2.05488" fill="#FFE7C8"/>
<path d="M10.8645 26.505C10.6364 26.4853 10.41 26.5624 10.241 26.7166C10.0885 26.8561 9.99495 27.0464 9.97772 27.2523C9.95886 27.4713 10.0261 27.6838 10.168 27.8511C10.3091 28.0185 10.5068 28.121 10.725 28.1399C10.7488 28.1415 10.7718 28.1423 10.7956 28.1423C11.0007 28.1423 11.1967 28.066 11.3485 27.9274C11.501 27.7879 11.5946 27.5976 11.6126 27.3917C11.6126 27.3909 11.6126 27.3909 11.6118 27.3909C11.6495 26.9406 11.3148 26.5427 10.8645 26.505Z" fill="#FFE7C8"/>
<path d="M31.7687 16.1398C31.6153 15.9914 31.4126 15.9102 31.1994 15.9102C30.9746 15.9102 30.7646 15.9988 30.6087 16.1604C30.457 16.3179 30.375 16.5254 30.3791 16.7444C30.3823 16.9634 30.4709 17.1677 30.6284 17.3195C30.6284 17.3195 30.6284 17.3203 30.6292 17.3203C30.7826 17.4688 30.9853 17.5508 31.1985 17.5508C31.4233 17.5508 31.6333 17.4614 31.7892 17.2998C32.1025 16.9749 32.0943 16.4557 31.7695 16.1407C31.7695 16.1407 31.7695 16.1407 31.7687 16.1398Z" fill="#FFE7C8"/>
</svg>
