<svg width="46" height="36" viewBox="0 0 46 36" fill="none" xmlns="http://www.w3.org/2000/svg">
<path d="M17.0874 13.9875C18.7373 13.407 19.942 11.6312 19.942 9.53537V8.64935C19.942 8.27327 19.6371 7.96875 19.2614 7.96875C18.8853 7.96875 18.5808 8.27327 18.5808 8.64935V9.53537C18.5808 11.3504 17.3868 12.8272 15.9193 12.8272H14.5244C14.1483 12.8272 13.8438 13.1318 13.8438 13.5075C13.8438 13.7387 13.9594 13.9428 14.1355 14.0659C14.0034 14.1898 13.9205 14.3656 13.9205 14.5614C13.9205 14.9372 14.2253 15.242 14.6011 15.242H16.0043C18.3206 15.242 20.2052 17.1262 20.2052 19.4426V34.4358C20.2052 34.8119 20.5101 35.1164 20.8858 35.1164C21.2615 35.1164 21.5664 34.8116 21.5664 34.4358V19.443C21.5661 16.7467 19.6375 14.493 17.0874 13.9875Z" fill="#FFE7C8"/>
<path fill-rule="evenodd" clip-rule="evenodd" d="M6.08 0.975463C8.07913 -0.00793391 10.5325 0.068109 12.5202 1.39181C15.4921 3.36996 16.2973 7.38303 14.3188 10.3546C14.2796 10.4134 14.2414 10.4719 14.2035 10.5304C13.7892 11.1745 13.8102 11.9958 14.2125 12.6475C14.485 13.0893 14.6446 13.6237 14.6446 14.1994C14.6446 14.775 14.4853 15.309 14.2128 15.7508C13.8082 16.4074 13.7923 17.2325 14.2111 17.8804C14.23 17.9093 14.2489 17.9385 14.2679 17.9678C16.2395 20.9665 15.4763 25.0773 12.4714 27.0396C11.3827 27.7505 10.1567 28.0915 8.94416 28.0915C6.85522 28.0915 4.8055 27.0809 3.55991 25.2125C1.19673 21.6681 -0.00103159 17.9623 6.6665e-07 14.198C0.00103293 10.4382 1.19776 6.73443 3.5575 3.19C3.6683 3.02381 3.78632 2.86518 3.9095 2.71241C3.9095 2.71241 4.65755 1.69873 6.08 0.975463Z" fill="#16BDCA"/>
<path fill-rule="evenodd" clip-rule="evenodd" d="M6.36352 25.2124C4.00068 21.668 2.80258 17.9622 2.80361 14.1979C2.80464 10.438 4.00172 6.7343 6.36111 3.19022C6.47191 3.02368 6.59027 2.86506 6.71311 2.71228L8.88361 0.975337C9.35087 0.745488 9.84326 0.574477 10.3484 0.462649C8.90322 0.140585 7.39371 0.329144 6.08 0.975337C5.2597 1.37654 4.54468 1.97112 3.9095 2.71228C3.78632 2.86506 3.6683 3.02368 3.5575 3.18987C1.19776 6.7343 0.00103293 10.438 6.6665e-07 14.1979C-0.00103159 17.9622 1.19673 21.668 3.55991 25.2124C4.80585 27.0808 6.85522 28.0914 8.94416 28.0914C9.41143 28.0914 9.88111 28.0401 10.3439 27.9369C8.77212 27.589 7.32731 26.6575 6.36352 25.2124Z" fill="#7EDCE2"/>
<path d="M27.9848 13.9875C26.3349 13.407 25.1303 11.6312 25.1303 9.53537V8.64935C25.1303 8.27327 25.4351 7.96875 25.8109 7.96875C26.1866 7.96875 26.4915 8.27327 26.4915 8.64935V9.53537C26.4915 11.3504 27.6855 12.8272 29.153 12.8272H30.5479C30.924 12.8272 31.2285 13.1318 31.2285 13.5075C31.2285 13.7387 31.1129 13.9428 30.9367 14.0659C31.0689 14.1898 31.1518 14.3656 31.1518 14.5614C31.1518 14.9372 30.8469 15.242 30.4712 15.242H29.068C26.7516 15.242 24.8671 17.1262 24.8671 19.4426V34.4358C24.8671 34.8119 24.5622 35.1164 24.1865 35.1164C23.8107 35.1164 23.5059 34.8116 23.5059 34.4358V19.443C23.5062 16.7467 25.4348 14.493 27.9848 13.9875Z" fill="#FFE7C8"/>
<path fill-rule="evenodd" clip-rule="evenodd" d="M41.1908 2.71241C41.3033 2.8731 41.432 3.02381 41.5428 3.19C43.9022 6.73443 45.0993 10.4382 45.1003 14.198C45.1013 17.9623 43.9032 21.6681 41.5404 25.2125C40.2944 27.0809 38.2451 28.0915 36.1561 28.0915C34.9436 28.0915 33.7176 27.7505 32.6286 27.0396C29.6237 25.0773 28.8605 20.9665 30.8321 17.9678C30.8514 17.9385 30.8703 17.9093 30.8889 17.8804C31.3076 17.2325 31.2921 16.4074 30.8875 15.7508C30.615 15.309 30.4557 14.775 30.4557 14.1994C30.4557 13.6237 30.615 13.0897 30.8878 12.6475C31.2897 11.9958 31.3107 11.1745 30.8964 10.5304C30.8589 10.4719 30.8204 10.4134 30.7812 10.3546C28.803 7.38303 29.6082 3.36996 32.5797 1.39181C34.5678 0.068109 37.0212 -0.00793391 39.0203 0.975463C39.0203 0.975463 40.6031 1.87387 41.1908 2.71241Z" fill="#16BDCA"/>
<path fill-rule="evenodd" clip-rule="evenodd" d="M41.5416 3.18979C41.4308 3.0236 41.3127 2.86498 41.1896 2.7122C40.5379 1.98549 39.8173 1.4002 39.0191 0.975258C37.6431 0.298442 36.0513 0.123646 34.5449 0.512119C34.9771 0.62257 35.3989 0.777065 35.8019 0.975258L37.9724 2.7122C38.0955 2.86498 38.2136 3.0236 38.3244 3.18979C40.6841 6.73422 41.8808 10.438 41.8819 14.1978C41.8829 17.9621 40.6848 21.6679 38.322 25.2123C37.4005 26.5938 36.0396 27.506 34.5484 27.8876C35.0779 28.0238 35.6178 28.0913 36.1549 28.0913C38.2438 28.0913 40.2936 27.0807 41.5392 25.2123C43.902 21.6679 45.1001 17.9621 45.0991 14.1978C45.098 10.438 43.9013 6.73422 41.5416 3.18979Z" fill="#7EDCE2"/>
</svg>
