<svg width="48" height="42" viewBox="0 0 48 42" fill="none" xmlns="http://www.w3.org/2000/svg">
<path fill-rule="evenodd" clip-rule="evenodd" d="M16 25.9086H9.6V24.3086C9.6 23.4264 8.8822 22.7086 8 22.7086C7.1178 22.7086 6.4 23.4264 6.4 24.3086V25.9086H0V24.3086C0 19.8974 3.5888 16.3086 8 16.3086C12.4112 16.3086 16 19.8974 16 24.3086V25.9086Z" fill="#16BDCA"/>
<path fill-rule="evenodd" clip-rule="evenodd" d="M24.8008 13.1086H22.4008C17.1073 13.1086 12.8008 8.80209 12.8008 3.50859V0.308594H19.2008V3.50859C19.2008 5.27309 20.6363 6.70859 22.4008 6.70859H24.8008V13.1086Z" fill="#16BDCA"/>
<path fill-rule="evenodd" clip-rule="evenodd" d="M12.8008 0.308594H16.0008V3.50859C16.0008 7.04319 18.8662 9.90859 22.4008 9.90859H24.8008V13.1086H22.4008C17.0989 13.1086 12.8008 8.81049 12.8008 3.50859V0.308594Z" fill="#7EDCE2"/>
<path fill-rule="evenodd" clip-rule="evenodd" d="M35.1996 0.308594C42.2689 0.308594 47.9996 6.03929 47.9996 13.1086V19.5086C47.9996 31.8798 37.9708 41.9086 25.5996 41.9086C16.7631 41.9086 9.59961 34.7452 9.59961 25.9086H15.9996C19.5342 25.9086 22.3996 23.0432 22.3996 19.5086V13.1086C22.3996 6.03939 28.1303 0.308594 35.1996 0.308594Z" fill="#16BDCA"/>
<path fill-rule="evenodd" clip-rule="evenodd" d="M41.5992 6.70898C38.0646 6.70898 35.1992 9.57438 35.1992 13.109V22.709C35.1992 28.011 30.9011 32.309 25.5992 32.309H19.1992C15.6646 32.309 12.7992 29.4436 12.7992 25.909V24.309C12.7992 21.658 10.6502 19.509 7.99922 19.509C5.34822 19.509 3.19922 21.658 3.19922 24.309V25.909H6.39922V24.309C6.39922 23.4254 7.11552 22.709 7.99922 22.709C8.88292 22.709 9.59922 23.4254 9.59922 24.309V25.909C9.59922 34.7455 16.7626 41.909 25.5992 41.909C37.9704 41.909 47.9992 31.8802 47.9992 19.509V13.109C47.9992 9.57438 45.1338 6.70898 41.5992 6.70898Z" fill="#7EDCE2"/>
<path d="M16.0002 29.1094H13.2051C14.6296 34.624 19.6468 38.7094 25.6002 38.7094H25.7002C32.7761 38.7094 38.9657 34.8417 42.2658 29.1094H16.0002Z" fill="#FFE7C8"/>
<path fill-rule="evenodd" clip-rule="evenodd" d="M25.6008 20.309C25.159 20.309 24.8008 19.9508 24.8008 19.509V13.109C24.8008 7.37438 29.4662 2.70898 35.2008 2.70898C35.6426 2.70898 36.0008 3.06718 36.0008 3.50898C36.0008 3.95078 35.6426 4.30898 35.2008 4.30898C30.3485 4.30898 26.4008 8.25668 26.4008 13.109V19.509C26.4008 19.9508 26.0426 20.309 25.6008 20.309Z" fill="#7EDCE2"/>
<circle cx="22" cy="34.3086" r="2" fill="#FFDAAA"/>
<circle cx="26.3996" cy="31.509" r="0.8" fill="#FFDAAA"/>
<circle cx="32.9333" cy="34.5759" r="0.9333" fill="#FFDAAA"/>
</svg>
