<svg width="41" height="36" viewBox="0 0 41 36" fill="none" xmlns="http://www.w3.org/2000/svg">
<path fill-rule="evenodd" clip-rule="evenodd" d="M20.48 35.6678C19.6474 35.6678 18.8521 35.3569 18.2406 34.7924L3.94816 21.5961C1.43904 19.2794 0 15.9931 0 12.5797C0 5.81447 5.504 0.310547 12.2692 0.310547C15.3089 0.310547 18.238 1.44703 20.48 3.46391C22.7219 1.44703 25.6511 0.310547 28.6908 0.310547C35.456 0.310547 40.96 5.81447 40.96 12.5797C40.96 15.9931 39.521 19.2795 37.0118 21.5961L22.7957 34.7196C22.1743 35.3313 21.353 35.6678 20.48 35.6678Z" fill="#7EDCE2"/>
<path fill-rule="evenodd" clip-rule="evenodd" d="M28.6913 0.310547C25.6516 0.310547 22.7225 1.44703 20.4805 3.46391V35.6678C21.3535 35.6678 22.1748 35.3313 22.7961 34.7195L37.0123 21.5961C39.5214 19.2794 40.9605 15.9931 40.9605 12.5797C40.9605 5.81447 35.4565 0.310547 28.6913 0.310547Z" fill="#16BDCA"/>
<path d="M24.57 18.5154C24.1733 18.5154 23.8022 18.7115 23.5787 19.0391L21.292 22.3913L18.7251 13.4415C18.59 12.9706 18.1823 12.6291 17.6951 12.5787C17.2078 12.5283 16.7388 12.7791 16.5102 13.2123L13.7121 18.5152H1.53516C2.01132 19.3774 2.59084 20.1847 3.26612 20.9152H14.4359C14.8809 20.9152 15.2895 20.6688 15.4972 20.2752L17.2407 16.9709L19.6897 25.5095C19.818 25.9567 20.1932 26.2895 20.6524 26.3634C20.7163 26.3736 20.7801 26.3787 20.8435 26.3787C21.2359 26.3787 21.6088 26.1857 21.8346 25.8548L25.2041 20.9151H37.6927C38.3679 20.1846 38.9475 19.3772 39.4236 18.5151H24.57V18.5154Z" fill="#F2F4F7"/>
<path d="M24.5711 18.5157C24.1744 18.5157 23.8033 18.7118 23.5797 19.0395L21.2931 22.3916L20.4805 19.5583V26.3226C20.5365 26.3404 20.5943 26.3544 20.6535 26.3639C20.7173 26.3742 20.7812 26.3792 20.8445 26.3792C21.2369 26.3792 21.6099 26.1863 21.8357 25.8554L25.2052 20.9156H37.6937C38.3689 20.1851 38.9485 19.3778 39.4247 18.5156H24.5711V18.5157Z" fill="#C7E7FF"/>
</svg>
