<svg width="30" height="43" viewBox="0 0 30 43" fill="none" xmlns="http://www.w3.org/2000/svg">
<path fill-rule="evenodd" clip-rule="evenodd" d="M25.5823 25.848C31.4171 20.0132 31.4171 10.5193 25.5823 4.68463C19.7476 -1.15004 10.2537 -1.15013 4.419 4.68463C-1.41567 10.5194 -1.41575 20.0133 4.419 25.848L7.66367 29.0926L13.233 23.5233L9.98842 20.2787C7.22467 17.515 7.22467 13.0177 9.98842 10.254C12.7522 7.49021 17.2494 7.49021 20.0132 10.254C22.7769 13.0177 22.7769 17.515 20.0132 20.2787L3.15433 37.1373C2.58542 37.7062 2.97917 38.6794 3.78367 38.6926L7.11358 38.7473L7.16825 42.0772C7.1815 42.8816 8.15467 43.2755 8.72358 42.7065L25.5823 25.848Z" fill="#16BDCA"/>
<mask id="mask0_268_11247" style="mask-type:luminance" maskUnits="userSpaceOnUse" x="0" y="0" width="30" height="43">
<path fill-rule="evenodd" clip-rule="evenodd" d="M25.5823 25.848C31.4171 20.0132 31.4171 10.5193 25.5823 4.68463C19.7476 -1.15004 10.2537 -1.15013 4.419 4.68463C-1.41567 10.5194 -1.41575 20.0133 4.419 25.848L7.66367 29.0926L13.233 23.5233L9.98842 20.2787C7.22467 17.515 7.22467 13.0177 9.98842 10.254C12.7522 7.49021 17.2494 7.49021 20.0132 10.254C22.7769 13.0177 22.7769 17.515 20.0132 20.2787L3.15433 37.1373C2.58542 37.7062 2.97917 38.6794 3.78367 38.6926L7.11358 38.7473L7.16825 42.0772C7.1815 42.8816 8.15467 43.2755 8.72358 42.7065L25.5823 25.848Z" fill="white"/>
</mask>
<g mask="url(#mask0_268_11247)">
<rect x="15.043" y="-2.69141" width="20" height="46" fill="#7EDCE2"/>
</g>
<path d="M22.3369 32.6289L16.7676 38.1982L21.2767 42.7074C21.8457 43.2763 22.8189 42.8825 22.8321 42.0781L22.8867 38.7481L26.2167 38.6935C27.0212 38.6803 27.415 37.7071 26.846 37.1382L22.3369 32.6289Z" fill="#FFE7C8"/>
</svg>
