<svg width="75" height="99" viewBox="0 0 75 99" fill="none" xmlns="http://www.w3.org/2000/svg">
<path fill-rule="evenodd" clip-rule="evenodd" d="M15.3063 98.3539H14.0946C6.32285 98.3539 0 92.031 0 84.2593C0 76.4875 6.32285 70.1646 14.0946 70.1646H23.6611V61.0645H29.4009V70.1646H50.3195C55.8013 70.1646 60.3499 66.7687 61.638 61.7146L67.2001 63.132C65.2531 70.7717 58.4694 75.9045 50.3195 75.9045H29.4008V84.2593C29.4008 92.031 23.0781 98.3539 15.3063 98.3539ZM14.0958 75.9034C9.48903 75.9034 5.74109 79.6513 5.74109 84.2581C5.74109 88.8649 9.48903 92.6129 14.0958 92.6129H15.3075C19.9144 92.6129 23.6623 88.8649 23.6623 84.2581V75.9034H14.0958Z" fill="#16BDCA"/>
<path fill-rule="evenodd" clip-rule="evenodd" d="M61.6369 61.7146C60.3489 66.7687 55.8004 70.1646 50.3185 70.1646H29.3999V61.0645H26.4023V92.9332C28.2776 90.5394 29.3999 87.5287 29.3999 84.2591V75.9043H50.3185C58.4683 75.9043 65.2521 70.7715 67.199 63.1318L61.6369 61.7146Z" fill="#0694A2"/>
<circle cx="64.9905" cy="55.305" r="7.14288" fill="#036672"/>
<path d="M64.9873 45.2949C70.5084 45.295 74.9999 49.7866 75 55.3076C75.0002 60.8287 70.5084 65.3202 64.9873 65.3203C59.4663 65.3203 54.9746 60.8286 54.9746 55.3076C54.9747 49.7865 59.4664 45.2949 64.9873 45.2949ZM64.7686 51.041C62.5144 51.1558 60.716 53.0263 60.7158 55.3086C60.7158 57.6646 62.6323 59.582 64.9883 59.582C67.3445 59.582 69.2617 57.6646 69.2617 55.3086C69.2617 52.9526 67.3444 51.0361 64.9883 51.0361L64.7686 51.041Z" fill="#EBEBEB"/>
<path d="M26.4017 63.9347C12.2648 63.9347 0.763672 52.4335 0.763672 38.2966V13.0584C0.763672 7.9796 4.89561 3.84766 9.97425 3.84766H12.7588V9.58752H9.97425C8.06057 9.58752 6.50354 11.1446 6.50354 13.0584V38.2966C6.50354 49.2686 15.4298 58.1948 26.4017 58.1948C37.3737 58.1948 46.3 49.2686 46.3 38.2966V13.4047C46.3 11.4911 44.7429 9.93402 42.8293 9.93402H39.9915V4.19415H42.8293C47.9079 4.19415 52.0398 8.32609 52.0398 13.4047V38.2966C52.0398 52.4333 40.5385 63.9347 26.4017 63.9347Z" fill="white"/>
<path d="M42.8298 4.19336H39.9921V9.93323H42.8298C44.7435 9.93323 46.3006 11.4903 46.3006 13.4039V38.2958C46.3006 49.2678 37.3743 58.194 26.4023 58.194V63.9339C40.5393 63.9339 52.0404 52.4327 52.0404 38.2958V13.4039C52.0406 8.32511 47.9087 4.19336 42.8298 4.19336Z" fill="white"/>
<path fill-rule="evenodd" clip-rule="evenodd" d="M35.5288 0.691406C32.2056 0.691406 29.502 3.39508 29.502 6.71827C29.502 10.0415 32.2056 12.7451 35.5288 12.7451H41.4281V0.691406H35.5288Z" fill="#16BDCA"/>
<path fill-rule="evenodd" clip-rule="evenodd" d="M17.2254 0.691406H11.3262V12.7451H17.2254C20.5486 12.7451 23.2523 10.0415 23.2523 6.71827C23.2523 3.39508 20.5488 0.691406 17.2254 0.691406Z" fill="#16BDCA"/>
</svg>
