<svg width="110" height="94" viewBox="0 0 110 94" fill="none" xmlns="http://www.w3.org/2000/svg">
<path fill-rule="evenodd" clip-rule="evenodd" d="M0.582957 68.9333C0.207843 68.0677 0 67.1144 0 66.1132V27.0441C0 23.0985 3.22441 19.8999 7.20119 19.8999H11.5339V14.5879V17.3064H41.6725V19.8999H46.4451C50.4233 19.8999 53.647 23.0985 53.647 27.0441V65.5554C53.0954 65.5744 52.5487 65.5935 52.002 65.6126C52.0234 65.3944 52.0341 65.1734 52.0341 64.9495V29.9893H23.855V28.2805C23.855 24.4019 20.6861 21.2584 16.7776 21.2584C12.8685 21.2584 9.69958 24.4019 9.69958 28.2805V29.9893H1.61221V64.9495C1.61221 66.3356 2.03501 67.6228 2.76033 68.6919C2.0165 68.7716 1.28977 68.8521 0.582957 68.9333Z" fill="#7EDCE2"/>
<path fill-rule="evenodd" clip-rule="evenodd" d="M46.4463 73.2587H23.8562V71.6658H45.2669C48.7796 71.6658 51.6673 69.0109 52.0033 65.6138C52.5499 65.5948 53.0966 65.5757 53.6482 65.5566V66.1145C53.6482 70.0594 50.4245 73.2587 46.4463 73.2587ZM9.70061 73.2593H7.20222C4.23476 73.2593 1.68655 71.4786 0.583984 68.9352C1.29079 68.854 2.01753 68.7735 2.76135 68.6937C3.97638 70.4865 6.04058 71.6664 8.38237 71.6664H9.70061V73.2593Z" fill="#0694A2"/>
<path fill-rule="evenodd" clip-rule="evenodd" d="M45.2667 71.6655H8.38242C4.64409 71.6655 1.61328 68.6589 1.61328 64.9505V29.9902H52.0351V64.9505C52.0351 68.6589 49.0058 71.6655 45.2667 71.6655Z" fill="#7EDCE2"/>
<path fill-rule="evenodd" clip-rule="evenodd" d="M9.70117 73.257H23.8566V71.6641H9.70117V73.257Z" fill="#0694A2"/>
<path fill-rule="evenodd" clip-rule="evenodd" d="M23.8566 29.9907H9.70117V28.2819C9.70117 24.4033 12.8701 21.2598 16.7792 21.2598C20.6877 21.2598 23.8566 24.4033 23.8566 28.2819V29.9907Z" fill="#7EDCE2"/>
<path fill-rule="evenodd" clip-rule="evenodd" d="M7.69922 57.7621H45.9473V34.9375H7.69922V57.7621Z" fill="#AFECEF"/>
<path fill-rule="evenodd" clip-rule="evenodd" d="M18.832 48.5614H34.8146V44.4844H18.832V48.5614Z" fill="#FFFFFE"/>
<path fill-rule="evenodd" clip-rule="evenodd" d="M24.7676 54.4524H28.8767V38.5977H24.7676V54.4524Z" fill="#FFFFFE"/>
<path fill-rule="evenodd" clip-rule="evenodd" d="M8.33789 15.3162H44.9204V2.81055H8.33789V15.3162Z" fill="#7EDCE2"/>
<path fill-rule="evenodd" clip-rule="evenodd" d="M10.6191 13.3429H11.9893V4.73633H10.6191V13.3429Z" fill="#0694A2"/>
<path fill-rule="evenodd" clip-rule="evenodd" d="M14.9922 13.3429H16.3624V4.73633H14.9922V13.3429Z" fill="#0694A2"/>
<path fill-rule="evenodd" clip-rule="evenodd" d="M19.3633 13.3429H20.7335V4.73633H19.3633V13.3429Z" fill="#0694A2"/>
<path fill-rule="evenodd" clip-rule="evenodd" d="M23.7344 13.3429H25.1039V4.73633H23.7344V13.3429Z" fill="#0694A2"/>
<path fill-rule="evenodd" clip-rule="evenodd" d="M28.1035 13.3429H29.4737V4.73633H28.1035V13.3429Z" fill="#0694A2"/>
<path fill-rule="evenodd" clip-rule="evenodd" d="M32.4727 13.3429H33.8429V4.73633H32.4727V13.3429Z" fill="#0694A2"/>
<path fill-rule="evenodd" clip-rule="evenodd" d="M36.8457 13.3429H38.2159V4.73633H36.8457V13.3429Z" fill="#0694A2"/>
<path fill-rule="evenodd" clip-rule="evenodd" d="M41.2168 13.3429H42.5863V4.73633H41.2168V13.3429Z" fill="#0694A2"/>
<path fill-rule="evenodd" clip-rule="evenodd" d="M7.88086 15.9477H45.7823V12.7773H7.88086V15.9477Z" fill="#0694A2"/>
<rect x="36.0371" y="51.8145" width="51.7922" height="28.5969" rx="4.1472" fill="#16BDCA"/>
<path fill-rule="evenodd" clip-rule="evenodd" d="M49.7008 60.7107C49.7008 62.9922 47.8512 64.8414 45.5701 64.8414C43.2886 64.8414 41.4395 62.9922 41.4395 60.7107C41.4395 58.4297 43.2886 56.5801 45.5701 56.5801C47.8512 56.5801 49.7008 58.4297 49.7008 60.7107Z" fill="#047481"/>
<path fill-rule="evenodd" clip-rule="evenodd" d="M49.7008 73.7381C49.7008 76.0191 47.8512 77.8688 45.5701 77.8688C43.2886 77.8688 41.4395 76.0191 41.4395 73.7381C41.4395 71.4566 43.2886 69.6074 45.5701 69.6074C47.8512 69.6074 49.7008 71.4566 49.7008 73.7381Z" fill="#047481"/>
<path fill-rule="evenodd" clip-rule="evenodd" d="M61.4566 60.7107C61.4566 62.9922 59.607 64.8414 57.326 64.8414C55.0445 64.8414 53.1953 62.9922 53.1953 60.7107C53.1953 58.4297 55.0445 56.5801 57.326 56.5801C59.607 56.5801 61.4566 58.4297 61.4566 60.7107Z" fill="#047481"/>
<path fill-rule="evenodd" clip-rule="evenodd" d="M61.4566 73.7381C61.4566 76.0191 59.607 77.8688 57.326 77.8688C55.0445 77.8688 53.1953 76.0191 53.1953 73.7381C53.1953 71.4566 55.0445 69.6074 57.326 69.6074C59.607 69.6074 61.4566 71.4566 61.4566 73.7381Z" fill="#047481"/>
<path fill-rule="evenodd" clip-rule="evenodd" d="M73.2145 60.7107C73.2145 62.9918 71.3652 64.8414 69.084 64.8414C66.8024 64.8414 64.9531 62.9918 64.9531 60.7107C64.9531 58.4293 66.8024 56.5801 69.084 56.5801C71.3652 56.5801 73.2145 58.4293 73.2145 60.7107Z" fill="#047481"/>
<path fill-rule="evenodd" clip-rule="evenodd" d="M73.2145 73.7381C73.2145 76.0191 71.3652 77.8688 69.084 77.8688C66.8024 77.8688 64.9531 76.0191 64.9531 73.7381C64.9531 71.4566 66.8024 69.6074 69.084 69.6074C71.3652 69.6074 73.2145 71.4566 73.2145 73.7381Z" fill="#047481"/>
<path fill-rule="evenodd" clip-rule="evenodd" d="M84.9703 60.7107C84.9703 62.9922 83.121 64.8414 80.8394 64.8414C78.5583 64.8414 76.709 62.9922 76.709 60.7107C76.709 58.4297 78.5583 56.5801 80.8394 56.5801C83.121 56.5801 84.9703 58.4297 84.9703 60.7107Z" fill="#047481"/>
<path fill-rule="evenodd" clip-rule="evenodd" d="M84.9703 73.7381C84.9703 76.0191 83.121 77.8688 80.8394 77.8688C78.5583 77.8688 76.709 76.0191 76.709 73.7381C76.709 71.4566 78.5583 69.6074 80.8394 69.6074C83.121 69.6074 84.9703 71.4566 84.9703 73.7381Z" fill="#047481"/>
<path fill-rule="evenodd" clip-rule="evenodd" d="M48.7477 59.7576C48.7477 62.0387 46.8985 63.8883 44.617 63.8883C42.3355 63.8883 40.4863 62.0387 40.4863 59.7576C40.4863 57.4761 42.3355 55.627 44.617 55.627C46.8985 55.627 48.7477 57.4761 48.7477 59.7576Z" fill="#FFFFFE"/>
<path fill-rule="evenodd" clip-rule="evenodd" d="M43.6621 63.7792C43.969 63.8483 44.2872 63.8883 44.6153 63.8883C44.9434 63.8883 45.2616 63.8483 45.5686 63.7792V55.736C45.2616 55.667 44.9434 55.627 44.6153 55.627C44.2872 55.627 43.969 55.667 43.6621 55.736V63.7792Z" fill="#E8EDF0"/>
<path fill-rule="evenodd" clip-rule="evenodd" d="M48.7477 72.4664C48.7477 74.748 46.8985 76.5973 44.617 76.5973C42.3355 76.5973 40.4863 74.748 40.4863 72.4664C40.4863 70.1852 42.3355 68.3359 44.617 68.3359C46.8985 68.3359 48.7477 70.1852 48.7477 72.4664Z" fill="#FFFFFE"/>
<path fill-rule="evenodd" clip-rule="evenodd" d="M38.8073 86.791H31.4426C30.1043 86.791 29.0195 87.8761 29.0195 89.2144C29.0195 90.5528 30.1043 91.6379 31.4426 91.6379H38.8073C40.1453 91.6379 41.2304 90.5528 41.2304 89.2144C41.2304 87.8761 40.1453 86.791 38.8073 86.791Z" fill="#FFFFFE"/>
<path fill-rule="evenodd" clip-rule="evenodd" d="M38.8073 86.791H35.125V91.6376H38.8073C40.1453 91.6376 41.2304 90.5528 41.2304 89.2144C41.2304 87.8761 40.1453 86.791 38.8073 86.791Z" fill="#16BDCA"/>
<path fill-rule="evenodd" clip-rule="evenodd" d="M27.7644 83.0047L21.731 87.2275C20.6348 87.9952 20.3679 89.5061 21.1356 90.6026C21.9029 91.6991 23.4141 91.9654 24.5103 91.1981L30.5437 86.9749C31.6399 86.2076 31.9068 84.6964 31.1391 83.6002C30.3718 82.504 28.8609 82.2371 27.7644 83.0047Z" fill="white"/>
<path fill-rule="evenodd" clip-rule="evenodd" d="M27.7647 83.0047L24.748 85.1161L27.5273 89.0867L30.544 86.9749C31.6402 86.2076 31.9071 84.6964 31.1395 83.6002C30.3721 82.504 28.8612 82.2371 27.7647 83.0047Z" fill="#16BDCA"/>
<path fill-rule="evenodd" clip-rule="evenodd" d="M43.6621 76.4882C43.969 76.5573 44.2872 76.5973 44.6153 76.5973C44.9434 76.5973 45.2616 76.5573 45.5686 76.4882V68.4446C45.2616 68.376 44.9434 68.3359 44.6153 68.3359C44.2872 68.3359 43.969 68.376 43.6621 68.4446V76.4882Z" fill="#E8EDF0"/>
<path fill-rule="evenodd" clip-rule="evenodd" d="M60.5035 59.7576C60.5035 62.0387 58.6539 63.8883 56.3729 63.8883C54.0914 63.8883 52.2422 62.0387 52.2422 59.7576C52.2422 57.4761 54.0914 55.627 56.3729 55.627C58.6539 55.627 60.5035 57.4761 60.5035 59.7576Z" fill="#FFFFFE"/>
<path fill-rule="evenodd" clip-rule="evenodd" d="M55.418 63.7792C55.7249 63.8483 56.0426 63.8883 56.3712 63.8883C56.6993 63.8883 57.0175 63.8483 57.3244 63.7792V55.736C57.0175 55.667 56.6993 55.627 56.3712 55.627C56.0426 55.627 55.7249 55.667 55.418 55.736V63.7792Z" fill="#E8EDF0"/>
<path fill-rule="evenodd" clip-rule="evenodd" d="M60.5035 72.4664C60.5035 74.748 58.6539 76.5973 56.3729 76.5973C54.0914 76.5973 52.2422 74.748 52.2422 72.4664C52.2422 70.1852 54.0914 68.3359 56.3729 68.3359C58.6539 68.3359 60.5035 70.1852 60.5035 72.4664Z" fill="#FFFFFE"/>
<path fill-rule="evenodd" clip-rule="evenodd" d="M55.418 76.4882C55.7249 76.5573 56.0426 76.5973 56.3712 76.5973C56.6993 76.5973 57.0175 76.5573 57.3244 76.4882V68.4446C57.0175 68.376 56.6993 68.3359 56.3712 68.3359C56.0426 68.3359 55.7249 68.376 55.418 68.4446V76.4882Z" fill="#E8EDF0"/>
<path fill-rule="evenodd" clip-rule="evenodd" d="M72.2594 59.7576C72.2594 62.0387 70.4097 63.8883 68.1287 63.8883C65.8472 63.8883 63.998 62.0387 63.998 59.7576C63.998 57.4761 65.8472 55.627 68.1287 55.627C70.4097 55.627 72.2594 57.4761 72.2594 59.7576Z" fill="#FFFFFE"/>
<path fill-rule="evenodd" clip-rule="evenodd" d="M67.1758 63.7792C67.4826 63.8483 67.8008 63.8883 68.1292 63.8883C68.4573 63.8883 68.7754 63.8483 69.0822 63.7792V55.736C68.7754 55.667 68.4573 55.627 68.1292 55.627C67.8008 55.627 67.4826 55.667 67.1758 55.736V63.7792Z" fill="#E8EDF0"/>
<path fill-rule="evenodd" clip-rule="evenodd" d="M72.2594 72.4662C72.2594 74.7476 70.4097 76.5973 68.1287 76.5973C65.8472 76.5973 63.998 74.7476 63.998 72.4662C63.998 70.1851 65.8472 68.3359 68.1287 68.3359C70.4097 68.3359 72.2594 70.1851 72.2594 72.4662Z" fill="#FFFFFE"/>
<path fill-rule="evenodd" clip-rule="evenodd" d="M67.1758 76.4882C67.4826 76.5573 67.8008 76.5973 68.1292 76.5973C68.4573 76.5973 68.7754 76.5573 69.0822 76.4882V68.4446C68.7754 68.376 68.4573 68.3359 68.1292 68.3359C67.8008 68.3359 67.4826 68.376 67.1758 68.4446V76.4882Z" fill="#E8EDF0"/>
<path fill-rule="evenodd" clip-rule="evenodd" d="M84.0172 59.7576C84.0172 62.0387 82.168 63.8883 79.887 63.8883C77.6055 63.8883 75.7559 62.0387 75.7559 59.7576C75.7559 57.4761 77.6055 55.627 79.887 55.627C82.168 55.627 84.0172 57.4761 84.0172 59.7576Z" fill="#FFFFFE"/>
<path fill-rule="evenodd" clip-rule="evenodd" d="M78.9316 63.7792C79.2386 63.8483 79.5568 63.8883 79.8853 63.8883C80.2134 63.8883 80.5316 63.8483 80.8381 63.7792V55.736C80.5316 55.667 80.2134 55.627 79.8853 55.627C79.5568 55.627 79.2386 55.667 78.9316 55.736V63.7792Z" fill="#E8EDF0"/>
<path fill-rule="evenodd" clip-rule="evenodd" d="M84.0172 72.4662C84.0172 74.7476 82.168 76.5973 79.887 76.5973C77.6055 76.5973 75.7559 74.7476 75.7559 72.4662C75.7559 70.1851 77.6055 68.3359 79.887 68.3359C82.168 68.3359 84.0172 70.1851 84.0172 72.4662Z" fill="#FFFFFE"/>
<path fill-rule="evenodd" clip-rule="evenodd" d="M78.9316 76.4882C79.2386 76.5573 79.5568 76.5973 79.8853 76.5973C80.2134 76.5973 80.5316 76.5573 80.8381 76.4882V68.4446C80.5316 68.376 80.2134 68.3359 79.8853 68.3359C79.5568 68.3359 79.2386 68.376 78.9316 68.4446V76.4882Z" fill="#E8EDF0"/>
<path fill-rule="evenodd" clip-rule="evenodd" d="M35.1367 93.1342C35.1367 93.4411 35.3858 93.6902 35.6928 93.6902C36 93.6902 36.2488 93.4411 36.2488 93.1342C36.2488 92.827 36 92.5781 35.6928 92.5781C35.3858 92.5781 35.1367 92.827 35.1367 93.1342Z" fill="#AFECEF"/>
<path fill-rule="evenodd" clip-rule="evenodd" d="M17.4727 88.5011C17.4727 88.9276 17.8185 89.2735 18.2453 89.2735C18.6718 89.2735 19.0176 88.9276 19.0176 88.5011C19.0176 88.0741 18.6718 87.7285 18.2453 87.7285C17.8185 87.7285 17.4727 88.0741 17.4727 88.5011Z" fill="#FFFFFE"/>
<path fill-rule="evenodd" clip-rule="evenodd" d="M100.367 80.9267C100.367 81.3534 100.713 81.699 101.14 81.699C101.566 81.699 101.912 81.3534 101.912 80.9267C101.912 80.5002 101.566 80.1543 101.14 80.1543C100.713 80.1543 100.367 80.5002 100.367 80.9267Z" fill="#FFFFFE"/>
<path fill-rule="evenodd" clip-rule="evenodd" d="M19.3789 1.46404C19.3789 1.89053 19.7248 2.23639 20.1515 2.23639C20.578 2.23639 20.9239 1.89053 20.9239 1.46404C20.9239 1.03727 20.578 0.691406 20.1515 0.691406C19.7248 0.691406 19.3789 1.03727 19.3789 1.46404Z" fill="#FFFFFE"/>
<path fill-rule="evenodd" clip-rule="evenodd" d="M44.9668 36.3019C44.9668 36.7284 45.3127 37.0746 45.7394 37.0746C46.1659 37.0746 46.5118 36.7284 46.5118 36.3019C46.5118 35.8754 46.1659 35.5293 45.7394 35.5293C45.3127 35.5293 44.9668 35.8754 44.9668 36.3019Z" fill="#FFFFFE"/>
<path fill-rule="evenodd" clip-rule="evenodd" d="M82.6387 70.7268C82.6387 70.9954 82.8564 71.2133 83.1252 71.2133C83.3938 71.2133 83.6118 70.9954 83.6118 70.7268C83.6118 70.4579 83.3938 70.2402 83.1252 70.2402C82.8564 70.2402 82.6387 70.4579 82.6387 70.7268Z" fill="#FFFFFE"/>
<path fill-rule="evenodd" clip-rule="evenodd" d="M100.791 50.5599V52.1782C100.791 52.3709 100.947 52.5272 101.14 52.5272C101.333 52.5272 101.489 52.3709 101.489 52.1782V50.5599C101.489 50.3672 101.333 50.2109 101.14 50.2109C100.947 50.2109 100.791 50.3672 100.791 50.5599Z" fill="#FFFFFE"/>
<path fill-rule="evenodd" clip-rule="evenodd" d="M75.4644 15.9559H77.0825C77.2755 15.9559 77.4317 15.7997 77.4317 15.607C77.4317 15.4141 77.2755 15.2578 77.0825 15.2578H75.4644C75.2715 15.2578 75.1152 15.4141 75.1152 15.607C75.1152 15.7997 75.2715 15.9559 75.4644 15.9559Z" fill="#FFFFFE"/>
<path fill-rule="evenodd" clip-rule="evenodd" d="M108.471 6.07394V7.52162C108.471 7.694 108.611 7.83384 108.783 7.83384C108.956 7.83384 109.095 7.694 109.095 7.52162V6.07394C109.095 5.90157 108.956 5.76172 108.783 5.76172C108.611 5.76172 108.471 5.90157 108.471 6.07394Z" fill="#FFFFFE"/>
</svg>
