<svg width="288" height="448" viewBox="0 0 288 448" fill="none" xmlns="http://www.w3.org/2000/svg">
<rect width="168" height="222" rx="16" fill="#BAF4F5"/>
<rect width="151" height="178" transform="translate(9 14)" fill="white"/>
<path d="M39.4133 38H37.7826L41.4466 27.8182H43.2215L46.8856 38H45.2549L42.3763 29.6676H42.2968L39.4133 38ZM39.6867 34.0128H44.9765V35.3054H39.6867V34.0128ZM48.2366 40.8636V30.3636H49.6883V31.6016H49.8126C49.8988 31.4425 50.0231 31.2585 50.1855 31.0497C50.3479 30.8409 50.5732 30.6586 50.8616 30.5028C51.1499 30.3438 51.5311 30.2642 52.0051 30.2642C52.6215 30.2642 53.1717 30.42 53.6556 30.7315C54.1395 31.0431 54.519 31.4922 54.7941 32.0788C55.0725 32.6655 55.2117 33.3714 55.2117 34.1967C55.2117 35.022 55.0742 35.7296 54.7991 36.3196C54.524 36.9062 54.1462 37.3587 53.6656 37.6768C53.185 37.9917 52.6365 38.1491 52.02 38.1491C51.556 38.1491 51.1765 38.0713 50.8815 37.9155C50.5898 37.7597 50.3611 37.5774 50.1954 37.3686C50.0297 37.1598 49.9021 36.9742 49.8126 36.8118H49.7231V40.8636H48.2366ZM49.6933 34.1818C49.6933 34.7187 49.7712 35.1894 49.9269 35.5938C50.0827 35.9981 50.3081 36.3146 50.6031 36.5433C50.8981 36.7687 51.2593 36.8814 51.6869 36.8814C52.131 36.8814 52.5022 36.7637 52.8005 36.5284C53.0988 36.2898 53.3242 35.9666 53.4767 35.5589C53.6324 35.1513 53.7103 34.6922 53.7103 34.1818C53.7103 33.678 53.6341 33.2256 53.4816 32.8246C53.3325 32.4235 53.1071 32.107 52.8055 31.875C52.5072 31.643 52.1343 31.527 51.6869 31.527C51.256 31.527 50.8914 31.638 50.5931 31.8601C50.2981 32.0821 50.0744 32.392 49.922 32.7898C49.7695 33.1875 49.6933 33.6515 49.6933 34.1818ZM56.8772 40.8636V30.3636H58.3289V31.6016H58.4532C58.5394 31.4425 58.6637 31.2585 58.8261 31.0497C58.9885 30.8409 59.2139 30.6586 59.5022 30.5028C59.7906 30.3438 60.1717 30.2642 60.6457 30.2642C61.2622 30.2642 61.8124 30.42 62.2963 30.7315C62.7802 31.0431 63.1597 31.4922 63.4347 32.0788C63.7132 32.6655 63.8524 33.3714 63.8524 34.1967C63.8524 35.022 63.7148 35.7296 63.4397 36.3196C63.1646 36.9062 62.7868 37.3587 62.3062 37.6768C61.8256 37.9917 61.2771 38.1491 60.6606 38.1491C60.1966 38.1491 59.8171 38.0713 59.5221 37.9155C59.2304 37.7597 59.0017 37.5774 58.836 37.3686C58.6703 37.1598 58.5427 36.9742 58.4532 36.8118H58.3637V40.8636H56.8772ZM58.3339 34.1818C58.3339 34.7187 58.4118 35.1894 58.5676 35.5938C58.7233 35.9981 58.9487 36.3146 59.2437 36.5433C59.5387 36.7687 59.8999 36.8814 60.3275 36.8814C60.7716 36.8814 61.1428 36.7637 61.4411 36.5284C61.7394 36.2898 61.9648 35.9666 62.1173 35.5589C62.2731 35.1513 62.3509 34.6922 62.3509 34.1818C62.3509 33.678 62.2747 33.2256 62.1222 32.8246C61.9731 32.4235 61.7477 32.107 61.4461 31.875C61.1478 31.643 60.7749 31.527 60.3275 31.527C59.8966 31.527 59.532 31.638 59.2338 31.8601C58.9388 32.0821 58.7151 32.392 58.5626 32.7898C58.4101 33.1875 58.3339 33.6515 58.3339 34.1818ZM68.7345 38.1541C68.0186 38.1541 67.3938 37.9901 66.8602 37.6619C66.3266 37.3338 65.9123 36.8748 65.6173 36.2848C65.3223 35.6948 65.1748 35.0054 65.1748 34.2166C65.1748 33.4245 65.3223 32.7318 65.6173 32.1385C65.9123 31.5452 66.3266 31.0845 66.8602 30.7564C67.3938 30.4283 68.0186 30.2642 68.7345 30.2642C69.4504 30.2642 70.0751 30.4283 70.6088 30.7564C71.1424 31.0845 71.5567 31.5452 71.8517 32.1385C72.1466 32.7318 72.2941 33.4245 72.2941 34.2166C72.2941 35.0054 72.1466 35.6948 71.8517 36.2848C71.5567 36.8748 71.1424 37.3338 70.6088 37.6619C70.0751 37.9901 69.4504 38.1541 68.7345 38.1541ZM68.7394 36.9062C69.2035 36.9062 69.5879 36.7836 69.8928 36.5384C70.1978 36.2931 70.4231 35.9666 70.569 35.5589C70.7181 35.1513 70.7927 34.7022 70.7927 34.2116C70.7927 33.7244 70.7181 33.277 70.569 32.8693C70.4231 32.4583 70.1978 32.1286 69.8928 31.88C69.5879 31.6314 69.2035 31.5071 68.7394 31.5071C68.2721 31.5071 67.8843 31.6314 67.5761 31.88C67.2712 32.1286 67.0441 32.4583 66.895 32.8693C66.7491 33.277 66.6762 33.7244 66.6762 34.2116C66.6762 34.7022 66.7491 35.1513 66.895 35.5589C67.0441 35.9666 67.2712 36.2931 67.5761 36.5384C67.8843 36.7836 68.2721 36.9062 68.7394 36.9062ZM73.9534 38V30.3636H75.4399V38H73.9534ZM74.7041 29.1854C74.4456 29.1854 74.2235 29.0992 74.0379 28.9268C73.8556 28.7512 73.7645 28.5424 73.7645 28.3004C73.7645 28.0552 73.8556 27.8464 74.0379 27.674C74.2235 27.4983 74.4456 27.4105 74.7041 27.4105C74.9626 27.4105 75.183 27.4983 75.3653 27.674C75.5509 27.8464 75.6437 28.0552 75.6437 28.3004C75.6437 28.5424 75.5509 28.7512 75.3653 28.9268C75.183 29.0992 74.9626 29.1854 74.7041 29.1854ZM78.9262 33.4659V38H77.4397V30.3636H78.8666V31.6065H78.961C79.1367 31.2022 79.4118 30.8774 79.7863 30.6321C80.1642 30.3868 80.6398 30.2642 81.2132 30.2642C81.7335 30.2642 82.1892 30.3736 82.5803 30.5923C82.9714 30.8078 83.2747 31.1293 83.4901 31.5568C83.7056 31.9844 83.8133 32.513 83.8133 33.1428V38H82.3268V33.3217C82.3268 32.7682 82.1826 32.3357 81.8943 32.0241C81.6059 31.7093 81.2098 31.5518 80.7061 31.5518C80.3614 31.5518 80.0548 31.6264 79.7863 31.7756C79.5212 31.9247 79.3107 32.1435 79.1549 32.4318C79.0025 32.7169 78.9262 33.0616 78.9262 33.4659ZM89.3715 30.3636V31.5568H85.2004V30.3636H89.3715ZM86.319 28.5341H87.8055V35.7578C87.8055 36.0462 87.8486 36.2633 87.9347 36.4091C88.0209 36.5516 88.132 36.6494 88.2678 36.7024C88.407 36.7521 88.5579 36.777 88.7203 36.777C88.8396 36.777 88.944 36.7687 89.0335 36.7521C89.123 36.7356 89.1926 36.7223 89.2423 36.7124L89.5107 37.9403C89.4246 37.9735 89.3019 38.0066 89.1428 38.0398C88.9838 38.0762 88.7849 38.0961 88.5463 38.0994C88.1552 38.1061 87.7906 38.0365 87.4525 37.8906C87.1144 37.7448 86.841 37.5194 86.6322 37.2145C86.4234 36.9096 86.319 36.5268 86.319 36.0661V28.5341ZM91.0159 38V30.3636H92.4427V31.6065H92.5372C92.6963 31.1856 92.9565 30.8575 93.3177 30.6222C93.679 30.3835 94.1115 30.2642 94.6153 30.2642C95.1257 30.2642 95.5533 30.3835 95.898 30.6222C96.246 30.8608 96.5029 31.1889 96.6686 31.6065H96.7481C96.9304 31.1989 97.2204 30.8741 97.6182 30.6321C98.0159 30.3868 98.4898 30.2642 99.04 30.2642C99.7327 30.2642 100.298 30.4813 100.735 30.9155C101.176 31.3497 101.397 32.0043 101.397 32.8793V38H99.9101V33.0185C99.9101 32.5014 99.7692 32.1269 99.4875 31.8949C99.2058 31.6629 98.8693 31.5469 98.4782 31.5469C97.9943 31.5469 97.6182 31.696 97.3497 31.9943C97.0812 32.2893 96.947 32.6688 96.947 33.1328V38H95.4655V32.924C95.4655 32.5097 95.3362 32.1766 95.0777 31.9247C94.8192 31.6728 94.4827 31.5469 94.0684 31.5469C93.7867 31.5469 93.5265 31.6214 93.2879 31.7706C93.0526 31.9164 92.862 32.1203 92.7162 32.3821C92.5737 32.6439 92.5024 32.9472 92.5024 33.2919V38H91.0159ZM106.68 38.1541C105.928 38.1541 105.28 37.9934 104.736 37.6719C104.196 37.3471 103.778 36.8913 103.483 36.3047C103.192 35.7147 103.046 35.0237 103.046 34.2315C103.046 33.4493 103.192 32.7599 103.483 32.1634C103.778 31.5668 104.189 31.1011 104.716 30.7663C105.247 30.4316 105.866 30.2642 106.576 30.2642C107.007 30.2642 107.424 30.3355 107.829 30.478C108.233 30.6205 108.596 30.8442 108.917 31.1491C109.239 31.4541 109.492 31.8501 109.678 32.3374C109.864 32.8213 109.956 33.4096 109.956 34.1023V34.6293H103.886V33.5156H108.5C108.5 33.1245 108.42 32.7782 108.261 32.4766C108.102 32.1716 107.878 31.9313 107.59 31.7557C107.305 31.58 106.97 31.4922 106.586 31.4922C106.168 31.4922 105.803 31.5949 105.492 31.8004C105.184 32.0026 104.945 32.2678 104.776 32.5959C104.61 32.9207 104.527 33.2737 104.527 33.6548V34.5249C104.527 35.0353 104.617 35.4695 104.796 35.8274C104.978 36.1854 105.232 36.4588 105.557 36.6477C105.881 36.8333 106.261 36.9261 106.695 36.9261C106.977 36.9261 107.234 36.8864 107.466 36.8068C107.698 36.724 107.898 36.6013 108.067 36.4389C108.236 36.2765 108.366 36.076 108.455 35.8374L109.862 36.0909C109.749 36.5052 109.547 36.8681 109.255 37.1797C108.967 37.4879 108.604 37.7282 108.167 37.9006C107.732 38.0696 107.237 38.1541 106.68 38.1541ZM113.092 33.4659V38H111.606V30.3636H113.033V31.6065H113.127C113.303 31.2022 113.578 30.8774 113.952 30.6321C114.33 30.3868 114.806 30.2642 115.379 30.2642C115.9 30.2642 116.355 30.3736 116.746 30.5923C117.137 30.8078 117.441 31.1293 117.656 31.5568C117.872 31.9844 117.979 32.513 117.979 33.1428V38H116.493V33.3217C116.493 32.7682 116.349 32.3357 116.06 32.0241C115.772 31.7093 115.376 31.5518 114.872 31.5518C114.527 31.5518 114.221 31.6264 113.952 31.7756C113.687 31.9247 113.477 32.1435 113.321 32.4318C113.168 32.7169 113.092 33.0616 113.092 33.4659ZM123.538 30.3636V31.5568H119.366V30.3636H123.538ZM120.485 28.5341H121.972V35.7578C121.972 36.0462 122.015 36.2633 122.101 36.4091C122.187 36.5516 122.298 36.6494 122.434 36.7024C122.573 36.7521 122.724 36.777 122.886 36.777C123.006 36.777 123.11 36.7687 123.199 36.7521C123.289 36.7356 123.359 36.7223 123.408 36.7124L123.677 37.9403C123.591 37.9735 123.468 38.0066 123.309 38.0398C123.15 38.0762 122.951 38.0961 122.712 38.0994C122.321 38.1061 121.957 38.0365 121.619 37.8906C121.28 37.7448 121.007 37.5194 120.798 37.2145C120.589 36.9096 120.485 36.5268 120.485 36.0661V28.5341ZM130.781 32.228L129.434 32.4666C129.378 32.2943 129.288 32.1302 129.165 31.9744C129.046 31.8187 128.884 31.6911 128.678 31.5916C128.473 31.4922 128.216 31.4425 127.908 31.4425C127.487 31.4425 127.135 31.5369 126.854 31.7259C126.572 31.9115 126.431 32.1518 126.431 32.4467C126.431 32.7019 126.525 32.9074 126.714 33.0632C126.903 33.219 127.208 33.3466 127.629 33.446L128.842 33.7244C129.545 33.8868 130.069 34.1371 130.413 34.4751C130.758 34.8132 130.93 35.2524 130.93 35.7926C130.93 36.25 130.798 36.6577 130.533 37.0156C130.271 37.3703 129.905 37.6487 129.434 37.8509C128.967 38.053 128.425 38.1541 127.808 38.1541C126.953 38.1541 126.255 37.9718 125.715 37.6072C125.175 37.2393 124.843 36.7173 124.721 36.0412L126.158 35.8224C126.247 36.197 126.431 36.4804 126.709 36.6726C126.988 36.8615 127.351 36.956 127.798 36.956C128.285 36.956 128.675 36.8549 128.967 36.6527C129.258 36.4472 129.404 36.197 129.404 35.902C129.404 35.6634 129.315 35.4628 129.136 35.3004C128.96 35.138 128.69 35.0154 128.325 34.9325L127.033 34.6491C126.32 34.4867 125.793 34.2282 125.452 33.8736C125.114 33.5189 124.945 33.0698 124.945 32.5263C124.945 32.0755 125.07 31.6811 125.322 31.343C125.574 31.005 125.922 30.7415 126.366 30.5526C126.811 30.3603 127.319 30.2642 127.893 30.2642C128.718 30.2642 129.368 30.4432 129.842 30.8011C130.315 31.1558 130.629 31.6314 130.781 32.228Z" fill="#0D9B9E"/>
<path fill-rule="evenodd" clip-rule="evenodd" d="M50 66.5C50 73.4036 44.4033 79 37.5 79C30.5967 79 25 73.4036 25 66.5C25 59.5964 30.5967 54 37.5 54C44.4033 54 50 59.5964 50 66.5ZM29.0542 74.3049C27.1587 72.2546 26 69.5126 26 66.5C26 60.1487 31.1489 55 37.5 55C43.8511 55 49 60.1487 49 66.5C49 69.36 47.9561 71.976 46.2285 73.9879C44.5957 72.6226 42.5688 71.6494 40.3232 71.2301V69.9053C41.9268 68.577 43 66.22 43 63.85C43 60.2601 40.5376 58 37.5 58C34.4624 58 32 60.2601 32 63.85C32 66.526 33.3682 69.1857 35.3232 70.3662V71.2301C32.9077 71.6813 30.7451 72.7733 29.0542 74.3049Z" fill="#1EB6B9"/>
<rect x="55" y="57.5" width="50" height="7" rx="1" fill="#57D7DA"/>
<rect x="55" y="68.5" width="90" height="7" rx="1" fill="#57D7DA"/>
<path fill-rule="evenodd" clip-rule="evenodd" d="M50 99.5C50 106.404 44.4036 112 37.5 112C30.5964 112 25 106.404 25 99.5C25 92.5964 30.5964 87 37.5 87C44.4036 87 50 92.5964 50 99.5ZM46.2284 106.988C44.5958 105.623 42.5688 104.649 40.3232 104.23V102.885C40.9176 102.757 41.5108 102.585 42.0811 102.42C42.9707 102.162 43.8044 101.921 44.5 101.888C42.5885 101.615 42.7649 100.069 42.993 98.0706C43.1825 96.4098 43.4077 94.4364 42.5 92.621C41.5124 90.6457 39.5214 89.9406 37.75 90.0039C35.9786 89.9406 33.9876 90.6457 33 92.621C32.0923 94.4364 32.3175 96.4098 32.507 98.0706C32.7351 100.069 32.9115 101.615 31 101.888C31.6956 101.921 32.5293 102.162 33.4189 102.42C34.036 102.599 34.68 102.785 35.3232 102.915V104.23C32.9076 104.681 30.7449 105.773 29.054 107.305C27.1584 105.255 26 102.513 26 99.5C26 93.1487 31.1487 88 37.5 88C43.8513 88 49 93.1487 49 99.5C49 102.36 47.956 104.976 46.2284 106.988Z" fill="#1EB6B9"/>
<rect x="55" y="90.5" width="50" height="7" rx="1" fill="#57D7DA"/>
<rect x="55" y="101.5" width="90" height="7" rx="1" fill="#57D7DA"/>
<path fill-rule="evenodd" clip-rule="evenodd" d="M50 132.5C50 139.404 44.4036 145 37.5 145C30.5964 145 25 139.404 25 132.5C25 125.596 30.5964 120 37.5 120C44.4036 120 50 125.596 50 132.5ZM46.2284 139.988C44.5958 138.623 42.5688 137.649 40.3232 137.23V136.085C41.4954 135.968 42.6613 135.764 43.8111 135.473L44.2257 135.369C45.1715 135.129 45.6987 134.12 45.3547 133.207L43.3363 127.85C42.4635 125.534 40.2469 124 37.7714 124C35.8331 124 34.0842 125.164 33.3357 126.952L30.701 133.245C30.3301 134.131 30.8258 135.141 31.7536 135.389C32.9288 135.704 34.1222 135.927 35.3232 136.06V137.23C32.9076 137.681 30.7449 138.773 29.054 140.305C27.1584 138.255 26 135.513 26 132.5C26 126.149 31.1487 121 37.5 121C43.8513 121 49 126.149 49 132.5C49 135.36 47.956 137.976 46.2284 139.988Z" fill="#1EB6B9"/>
<rect x="55" y="123.5" width="50" height="7" rx="1" fill="#57D7DA"/>
<rect x="55" y="134.5" width="90" height="7" rx="1" fill="#57D7DA"/>
<path fill-rule="evenodd" clip-rule="evenodd" d="M50 165.5C50 172.404 44.4033 178 37.5 178C30.5967 178 25 172.404 25 165.5C25 158.596 30.5967 153 37.5 153C44.4033 153 50 158.596 50 165.5ZM29.0542 173.305C27.1587 171.255 26 168.513 26 165.5C26 159.149 31.1489 154 37.5 154C43.8511 154 49 159.149 49 165.5C49 168.36 47.9561 170.976 46.2285 172.988C44.5957 171.623 42.5688 170.649 40.3232 170.23V168.905C41.9268 167.577 43 165.22 43 162.85C43 159.26 40.5376 157 37.5 157C34.4624 157 32 159.26 32 162.85C32 165.526 33.3682 168.186 35.3232 169.366V170.23C32.9077 170.681 30.7451 171.773 29.0542 173.305Z" fill="#1EB6B9"/>
<rect x="55" y="156.5" width="50" height="7" rx="1" fill="#57D7DA"/>
<rect x="55" y="167.5" width="90" height="7" rx="1" fill="#57D7DA"/>
<path d="M240.049 447.566C238.293 438.544 244.805 421.416 248.281 413.979C251.117 413.326 257.392 412.558 259.807 414.715C262.221 416.872 262.093 437.515 261.728 447.566H240.049Z" fill="#303940"/>
<path d="M198.596 24.5363C201.963 -10.5388 228.806 -0.462629 235.073 8.98429C259.766 -16.8311 290.187 34.638 272.954 55.5641C263.004 67.6469 271.501 77.9515 284.623 93.8655L284.74 94.0066C297.928 110.001 270.409 138.157 214.871 127.236C164.924 117.415 188.951 93.4258 198.596 82.6208C209.259 70.6739 190.739 63.5399 189.616 51.7547C188.494 39.9694 196.524 46.1144 198.596 24.5363Z" fill="#333333"/>
<path d="M224.434 316.807L229.675 293.462L206.225 278.217C204.11 288.301 200.156 311.471 201.26 323.476C202.639 338.484 195.19 390.651 194.362 406.373C193.7 418.951 182.683 436.387 177.258 443.534H191.88C196.662 436.387 206.225 421.809 206.225 420.666C206.225 419.236 210.64 396.368 220.02 370.88C227.524 350.489 226.089 326.335 224.434 316.807Z" fill="#FFCAAC"/>
<path d="M214.216 101.079C213.187 114.363 211.544 134.263 209.963 150.787C209.172 159.048 208.397 166.473 207.72 171.807C207.381 174.471 207.065 176.627 206.783 178.109C206.643 178.845 206.507 179.443 206.372 179.859C206.307 180.059 206.227 180.267 206.123 180.435C206.073 180.515 205.985 180.64 205.846 180.741C205.708 180.841 205.492 180.933 205.236 180.896L205.124 180.872C204.923 180.815 204.653 180.669 204.399 180.524C204.114 180.362 203.75 180.14 203.318 179.868C202.454 179.324 201.298 178.564 199.923 177.643C197.171 175.799 193.524 173.293 189.547 170.532C181.591 165.009 172.301 158.456 166.173 154.105L165.552 153.664L166.003 153.05L204.257 100.933L204.47 100.642L204.83 100.627L213.437 100.272L214.281 100.237L214.216 101.079Z" fill="white" stroke="#E8E8E8" stroke-width="1.5"/>
<path d="M239.496 320.19C236.313 311.053 238.169 292.432 239.496 284.264H269.995L262.039 315.193C273.92 344.505 265.045 394.659 259.121 416.071C261.031 420.449 258.326 432.171 256.735 437.484C255.249 434.629 247.098 436.295 243.209 437.484C243.739 431.695 245.277 419.307 247.187 416.071C249.574 412.027 243.474 331.61 239.496 320.19Z" fill="#FFCAAC"/>
<path d="M201.4 177.346L218.236 167.244L249.102 171.734L262.01 219.436L273.234 272.75L269.305 310.351C234.286 313.494 204.206 309.041 193.543 306.422L201.4 177.346Z" fill="#005254"/>
<path d="M207.574 101.584C218.573 93.7268 228.806 90.266 232.547 89.5178C243.547 86.5995 256.398 97.4682 261.449 103.267C260.794 127.399 257.352 177.234 248.822 183.519C240.292 189.805 215.337 186.138 203.926 183.519C200.558 159.481 196.574 109.44 207.574 101.584Z" fill="#1EB6B9"/>
<path d="M248.232 93.2871C257.512 96.3058 262.95 97.9243 266.036 99.1426C267.572 99.7488 268.639 100.296 269.316 100.938C270.057 101.64 270.298 102.417 270.298 103.307V103.439L270.252 103.563C267.136 112.119 263.023 127.092 261.228 142.769C259.429 158.478 259.98 174.733 266.038 185.969C272.29 197.564 275.922 217.485 277.944 237.558C279.97 257.669 280.391 278.07 280.157 290.722L280.145 291.41L279.457 291.456L237.367 294.263L236.68 294.309L236.576 293.627C221.744 196.092 236.865 120.149 247.303 93.7246L247.562 93.0684L248.232 93.2871Z" fill="white" stroke="#E8E8E8" stroke-width="1.5"/>
<path d="M226.714 93.2305C220.015 113.979 205.86 182.754 213.936 292.898L213.985 293.578L213.312 293.692C210.229 294.214 205.168 294.71 199.963 294.509C194.785 294.309 189.335 293.416 185.571 291.063L185.19 290.825L185.221 290.377L195.603 137.449L195.606 137.406C196.17 132.901 197.253 125.699 198.675 118.718C200.089 111.771 201.86 104.932 203.826 101.23L203.876 101.146C204.002 100.956 204.184 100.807 204.313 100.708C204.491 100.572 204.714 100.426 204.968 100.274C205.477 99.9687 206.162 99.606 206.967 99.21C208.58 98.4163 210.722 97.4639 213.021 96.5205C217.593 94.6436 222.887 92.7581 225.877 92.2598L227.093 92.0576L226.714 93.2305Z" fill="white" stroke="#E8E8E8" stroke-width="1.5"/>
<path d="M223.849 156.581L235.073 125.995L231.706 124.873L220.201 155.459V161.071L223.849 156.581Z" fill="#3D4349"/>
<path d="M222.445 149.565L221.537 147.598C221.069 146.583 221.262 145.382 222.027 144.566C226.487 139.809 231.599 134.917 239.281 143.111C247.699 152.09 246.577 155.738 243.21 159.106C240.516 161.799 235.353 160.228 233.108 159.106C225.251 161.126 224.597 156.206 225.251 153.493C219.415 152.82 220.949 150.594 222.445 149.565Z" fill="#FFCAAC"/>
<path d="M228.059 94.2873V78.293L243.772 76.6094V94.2873C243.772 97.5144 238.441 101.246 233.951 101.022C229.462 100.797 228.152 96.4385 228.059 94.2873Z" fill="#F7B793"/>
<path d="M208.135 48.8304C202.523 39.6267 223.568 21.425 234.792 13.4746C238.44 30.3107 250.787 34.2391 254.435 37.6063C257.353 40.3001 258.269 48.4563 258.363 52.1976C260.701 45.089 267.623 43.7796 269.587 48.8304C273.734 59.4932 262.385 66.7889 258.363 66.7889C256.586 72.588 248.261 83.9617 229.18 83.0638C210.1 82.1658 207.2 59.8674 208.135 48.8304Z" fill="#FFCAAC"/>
<path d="M169.193 443.841C172.72 439.668 185.172 439.95 190.957 440.612C198.45 432.069 204.915 418.84 207.21 413.293L213.547 421.489L207.21 447.566H204.731V428.443L196.191 447.566H169.193V443.841Z" fill="#303940"/>
<path d="M227.154 55.1224C229.175 52.6532 229.119 50.5393 228.838 49.791C230.522 51.9168 229.68 55.1224 227.996 58.3281C226.649 60.8925 230.241 62.3897 232.205 62.8177C223.226 63.3789 224.629 58.2091 227.154 55.1224Z" fill="#E99E73"/>
<path d="M235.916 40.1313C238.535 39.2895 244.615 38.111 247.982 40.1313C245.644 38.2606 239.957 35.6417 235.916 40.1313Z" fill="#333333"/>
<path d="M212.625 40.0844C215.244 39.2426 221.324 38.0641 224.691 40.0844C222.353 38.2137 216.666 35.5948 212.625 40.0844Z" fill="#333333"/>
<path fill-rule="evenodd" clip-rule="evenodd" d="M207.206 44.5388C207.089 46.6747 207.378 49.4856 208.541 51.8839C209.841 54.5621 212.233 56.7596 216.605 56.9629C218.85 57.0673 220.53 56.6498 221.79 55.9637C223.048 55.2783 223.954 54.2889 224.595 53.1442C225.803 50.9881 226.05 48.3116 225.872 46.3384C225.206 45.8951 224.171 45.4996 222.795 45.184C221.204 44.819 219.297 44.5912 217.29 44.4658C213.714 44.2424 209.915 44.3497 207.206 44.5388ZM228.155 46.8601C228.246 49.0564 227.893 51.8491 226.554 54.2412C225.736 55.7014 224.544 57.02 222.863 57.9352C221.184 58.8497 219.083 59.3254 216.501 59.2053C211.22 58.9597 208.141 56.1999 206.522 52.8639C204.942 49.6079 204.759 45.8405 205.056 43.3591L205.165 42.4516L206.076 42.3745C208.875 42.1372 213.281 41.9662 217.43 42.2253C219.503 42.3548 221.542 42.5935 223.297 42.996C224.838 43.3495 226.281 43.8551 227.325 44.6153H232.999C234.043 43.8551 235.486 43.3495 237.027 42.996C238.782 42.5935 240.821 42.3548 242.895 42.2253C247.043 41.9662 251.449 42.1372 254.248 42.3745L254.297 42.3785L262.482 43.7898L262.1 46.002L255.378 44.8429C255.451 47.205 255.093 50.205 253.802 52.8639C252.184 56.1999 249.104 58.9597 243.823 59.2053C241.242 59.3254 239.141 58.8497 237.461 57.9352C235.78 57.02 234.589 55.7014 233.771 54.2412C232.431 51.8491 232.079 49.0564 232.169 46.8601H228.155ZM234.452 46.3384C234.274 48.3116 234.521 50.9881 235.729 53.1442C236.37 54.2889 237.276 55.2783 238.535 55.9637C239.794 56.6498 241.474 57.0673 243.719 56.9629C248.091 56.7596 250.483 54.5621 251.783 51.8839C252.947 49.4856 253.236 46.6747 253.118 44.5388C250.409 44.3497 246.611 44.2424 243.034 44.4658C241.027 44.5912 239.12 44.819 237.529 45.184C236.153 45.4996 235.118 45.8951 234.452 46.3384Z" fill="#41261E"/>
<ellipse cx="241.808" cy="50.2318" rx="2.80601" ry="3.64782" fill="#333333"/>
<ellipse cx="217.675" cy="50.2318" rx="2.80601" ry="3.64782" fill="#333333"/>
<path d="M231.425 75.6049C224.41 76.1661 221.885 68.3092 221.885 67.748C227.721 69.9929 236.102 68.6834 239.563 67.748C239.189 70.1799 237.037 75.1559 231.425 75.6049Z" fill="#C63435"/>
<path d="M238.936 67.908C235.172 68.8189 227.395 69.8672 221.885 67.748C221.885 67.7566 221.885 67.7669 221.887 67.7789C223.68 69.8708 226.649 71.9452 231.149 71.6479C234.928 71.3982 237.406 69.7431 238.936 67.908Z" fill="white"/>
<path d="M162.678 194.18L145 132.167L148.928 130.203H197.192L215.712 193.058L212.906 194.18H162.678Z" fill="#1EB6B9"/>
<path d="M145.045 132.326L162.678 194.181H212.905L213.044 194.126L194.24 133.237L145.045 132.326Z" fill="#57D7DA"/>
<path d="M151.733 168.927C150.793 166.064 152.575 164.344 154.259 163.596H162.677C167.84 163.596 168.195 167.15 167.728 168.927C170.102 171.857 167.728 173.893 167.728 176.223C167.728 177.345 169.972 179.59 159.871 179.59C151.789 179.59 151.078 172.481 151.733 168.927Z" fill="#FFCAAC"/>
<path d="M263.094 97.7559C267.379 98.2916 270.893 101.182 273.537 104.625C276.023 107.863 277.812 111.681 278.814 114.787L279.005 115.398L279.008 115.409L279.011 115.419C287.817 148.387 279.319 172.707 273.858 180.85L273.672 181.127L273.342 181.174C264.472 182.441 256.229 179.581 249.564 175.546C242.902 171.512 237.753 166.266 235.035 162.643L234.759 162.274L234.962 161.862L242.818 145.868L243.093 145.311L243.691 145.476L258.472 149.552C257.695 147.302 257.306 144.267 257.181 140.83C257.023 136.53 257.273 131.483 257.761 126.306C258.736 115.95 260.673 105.001 262.271 98.3252L262.428 97.6729L263.094 97.7559Z" fill="white" stroke="#E8E8E8" stroke-width="1.5"/>
</svg>
