<svg width="324" height="453" viewBox="0 0 324 453" fill="none" xmlns="http://www.w3.org/2000/svg">
<rect width="168" height="222" rx="16" fill="#BAF4F5"/>
<rect width="151" height="178" transform="translate(9 14)" fill="white"/>
<path d="M32.1469 38V27.8182H35.7762C36.5683 27.8182 37.2246 27.9624 37.7449 28.2507C38.2653 28.5391 38.6547 28.9335 38.9133 29.4339C39.1718 29.9311 39.301 30.4912 39.301 31.1143C39.301 31.7408 39.1701 32.3042 38.9083 32.8047C38.6498 33.3018 38.2587 33.6963 37.735 33.9879C37.2146 34.2763 36.56 34.4205 35.7712 34.4205H33.2755V33.1179H35.632C36.1325 33.1179 36.5385 33.0317 36.8501 32.8594C37.1616 32.6837 37.3903 32.4451 37.5361 32.1435C37.682 31.8419 37.7549 31.4988 37.7549 31.1143C37.7549 30.7299 37.682 30.3885 37.5361 30.0902C37.3903 29.7919 37.1599 29.5582 36.8451 29.3892C36.5335 29.2202 36.1225 29.1357 35.6121 29.1357H33.6831V38H32.1469ZM43.1366 38.169C42.6527 38.169 42.2152 38.0795 41.8241 37.9006C41.433 37.7183 41.1231 37.4548 40.8944 37.1101C40.6691 36.7654 40.5564 36.3428 40.5564 35.8423C40.5564 35.4115 40.6392 35.0568 40.805 34.7784C40.9707 34.5 41.1944 34.2796 41.4761 34.1172C41.7578 33.9548 42.0727 33.8321 42.4207 33.7493C42.7687 33.6664 43.1234 33.6035 43.4846 33.5604C43.942 33.5073 44.3132 33.4643 44.5983 33.4311C44.8833 33.3946 45.0905 33.3366 45.2197 33.2571C45.349 33.1776 45.4136 33.0483 45.4136 32.8693V32.8345C45.4136 32.4003 45.291 32.0639 45.0457 31.8253C44.8038 31.5866 44.4425 31.4673 43.9619 31.4673C43.4614 31.4673 43.067 31.5784 42.7787 31.8004C42.4936 32.0192 42.2964 32.2628 42.1871 32.5312L40.79 32.2131C40.9558 31.7491 41.1977 31.3745 41.5159 31.0895C41.8374 30.8011 42.2069 30.5923 42.6246 30.4631C43.0422 30.3305 43.4813 30.2642 43.942 30.2642C44.247 30.2642 44.5701 30.3007 44.9115 30.3736C45.2562 30.4432 45.5777 30.5724 45.876 30.7614C46.1776 30.9503 46.4245 31.2204 46.6167 31.5717C46.809 31.9197 46.9051 32.3722 46.9051 32.929V38H45.4534V36.956H45.3937C45.2976 37.1482 45.1534 37.3371 44.9612 37.5227C44.769 37.7083 44.522 37.8625 44.2204 37.9851C43.9188 38.1077 43.5576 38.169 43.1366 38.169ZM43.4598 36.9759C43.8708 36.9759 44.2221 36.8946 44.5138 36.7322C44.8087 36.5698 45.0325 36.3577 45.1849 36.0959C45.3407 35.8307 45.4186 35.5473 45.4186 35.2457V34.2614C45.3656 34.3144 45.2628 34.3641 45.1104 34.4105C44.9612 34.4536 44.7905 34.4917 44.5983 34.5249C44.406 34.5547 44.2188 34.5829 44.0365 34.6094C43.8542 34.6326 43.7017 34.6525 43.5791 34.669C43.2907 34.7055 43.0273 34.7668 42.7886 34.853C42.5533 34.9392 42.3644 35.0634 42.2219 35.2259C42.0827 35.3849 42.0131 35.5971 42.0131 35.8622C42.0131 36.2301 42.1489 36.5085 42.4207 36.6974C42.6925 36.883 43.0389 36.9759 43.4598 36.9759ZM52.4497 30.3636V31.5568H48.2785V30.3636H52.4497ZM49.3971 28.5341H50.8836V35.7578C50.8836 36.0462 50.9267 36.2633 51.0129 36.4091C51.099 36.5516 51.2101 36.6494 51.346 36.7024C51.4852 36.7521 51.636 36.777 51.7984 36.777C51.9177 36.777 52.0221 36.7687 52.1116 36.7521C52.2011 36.7356 52.2707 36.7223 52.3204 36.7124L52.5889 37.9403C52.5027 37.9735 52.3801 38.0066 52.221 38.0398C52.0619 38.0762 51.863 38.0961 51.6244 38.0994C51.2333 38.1061 50.8687 38.0365 50.5306 37.8906C50.1926 37.7448 49.9191 37.5194 49.7103 37.2145C49.5015 36.9096 49.3971 36.5268 49.3971 36.0661V28.5341ZM54.094 38V30.3636H55.5805V38H54.094ZM54.8447 29.1854C54.5862 29.1854 54.3641 29.0992 54.1785 28.9268C53.9962 28.7512 53.9051 28.5424 53.9051 28.3004C53.9051 28.0552 53.9962 27.8464 54.1785 27.674C54.3641 27.4983 54.5862 27.4105 54.8447 27.4105C55.1032 27.4105 55.3237 27.4983 55.5059 27.674C55.6916 27.8464 55.7844 28.0552 55.7844 28.3004C55.7844 28.5424 55.6916 28.7512 55.5059 28.9268C55.3237 29.0992 55.1032 29.1854 54.8447 29.1854ZM60.8715 38.1541C60.1192 38.1541 59.4712 37.9934 58.9276 37.6719C58.3874 37.3471 57.9698 36.8913 57.6748 36.3047C57.3831 35.7147 57.2373 35.0237 57.2373 34.2315C57.2373 33.4493 57.3831 32.7599 57.6748 32.1634C57.9698 31.5668 58.3808 31.1011 58.9078 30.7663C59.4381 30.4316 60.0579 30.2642 60.7671 30.2642C61.198 30.2642 61.6156 30.3355 62.02 30.478C62.4243 30.6205 62.7873 30.8442 63.1088 31.1491C63.4303 31.4541 63.6838 31.8501 63.8694 32.3374C64.055 32.8213 64.1478 33.4096 64.1478 34.1023V34.6293H58.0775V33.5156H62.6911C62.6911 33.1245 62.6116 32.7782 62.4525 32.4766C62.2934 32.1716 62.0697 31.9313 61.7813 31.7557C61.4963 31.58 61.1615 31.4922 60.7771 31.4922C60.3595 31.4922 59.9949 31.5949 59.6833 31.8004C59.3751 32.0026 59.1365 32.2678 58.9674 32.5959C58.8017 32.9207 58.7188 33.2737 58.7188 33.6548V34.5249C58.7188 35.0353 58.8083 35.4695 58.9873 35.8274C59.1696 36.1854 59.4231 36.4588 59.748 36.6477C60.0728 36.8333 60.4523 36.9261 60.8865 36.9261C61.1682 36.9261 61.425 36.8864 61.657 36.8068C61.8891 36.724 62.0896 36.6013 62.2586 36.4389C62.4276 36.2765 62.5569 36.076 62.6464 35.8374L64.0534 36.0909C63.9407 36.5052 63.7385 36.8681 63.4468 37.1797C63.1585 37.4879 62.7955 37.7282 62.358 37.9006C61.9239 38.0696 61.4284 38.1541 60.8715 38.1541ZM67.2836 33.4659V38H65.7971V30.3636H67.224V31.6065H67.3184C67.4941 31.2022 67.7692 30.8774 68.1437 30.6321C68.5216 30.3868 68.9972 30.2642 69.5706 30.2642C70.0909 30.2642 70.5467 30.3736 70.9378 30.5923C71.3289 30.8078 71.6321 31.1293 71.8476 31.5568C72.063 31.9844 72.1707 32.513 72.1707 33.1428V38H70.6842V33.3217C70.6842 32.7682 70.54 32.3357 70.2517 32.0241C69.9633 31.7093 69.5673 31.5518 69.0635 31.5518C68.7188 31.5518 68.4122 31.6264 68.1437 31.7756C67.8786 31.9247 67.6681 32.1435 67.5123 32.4318C67.3599 32.7169 67.2836 33.0616 67.2836 33.4659ZM77.729 30.3636V31.5568H73.5578V30.3636H77.729ZM74.6764 28.5341H76.1629V35.7578C76.1629 36.0462 76.206 36.2633 76.2922 36.4091C76.3783 36.5516 76.4894 36.6494 76.6253 36.7024C76.7645 36.7521 76.9153 36.777 77.0777 36.777C77.197 36.777 77.3014 36.7687 77.3909 36.7521C77.4804 36.7356 77.55 36.7223 77.5997 36.7124L77.8682 37.9403C77.782 37.9735 77.6594 38.0066 77.5003 38.0398C77.3412 38.0762 77.1423 38.0961 76.9037 38.0994C76.5126 38.1061 76.148 38.0365 75.8099 37.8906C75.4719 37.7448 75.1984 37.5194 74.9896 37.2145C74.7808 36.9096 74.6764 36.5268 74.6764 36.0661V28.5341ZM83.1977 38V27.8182H86.827C87.6158 27.8182 88.2704 27.9541 88.7907 28.2259C89.3144 28.4976 89.7055 28.8738 89.964 29.3544C90.2226 29.8317 90.3518 30.3835 90.3518 31.0099C90.3518 31.633 90.2209 32.1816 89.9591 32.6555C89.7006 33.1262 89.3095 33.4924 88.7858 33.7543C88.2654 34.0161 87.6108 34.147 86.822 34.147H84.0727V32.8246H86.6828C87.18 32.8246 87.5843 32.7533 87.8959 32.6108C88.2107 32.4683 88.4411 32.2611 88.5869 31.9893C88.7327 31.7176 88.8057 31.3911 88.8057 31.0099C88.8057 30.6255 88.7311 30.2924 88.5819 30.0107C88.4361 29.7289 88.2058 29.5135 87.8909 29.3643C87.5793 29.2119 87.17 29.1357 86.6629 29.1357H84.7339V38H83.1977ZM88.224 33.4062L90.7396 38H88.9896L86.5237 33.4062H88.224ZM95.2973 38.1541C94.545 38.1541 93.897 37.9934 93.3534 37.6719C92.8132 37.3471 92.3956 36.8913 92.1006 36.3047C91.8089 35.7147 91.6631 35.0237 91.6631 34.2315C91.6631 33.4493 91.8089 32.7599 92.1006 32.1634C92.3956 31.5668 92.8066 31.1011 93.3335 30.7663C93.8638 30.4316 94.4836 30.2642 95.1929 30.2642C95.6238 30.2642 96.0414 30.3355 96.4458 30.478C96.8501 30.6205 97.213 30.8442 97.5345 31.1491C97.856 31.4541 98.1096 31.8501 98.2952 32.3374C98.4808 32.8213 98.5736 33.4096 98.5736 34.1023V34.6293H92.5033V33.5156H97.1169C97.1169 33.1245 97.0374 32.7782 96.8783 32.4766C96.7192 32.1716 96.4955 31.9313 96.2071 31.7557C95.9221 31.58 95.5873 31.4922 95.2029 31.4922C94.7852 31.4922 94.4207 31.5949 94.1091 31.8004C93.8009 32.0026 93.5622 32.2678 93.3932 32.5959C93.2275 32.9207 93.1446 33.2737 93.1446 33.6548V34.5249C93.1446 35.0353 93.2341 35.4695 93.4131 35.8274C93.5954 36.1854 93.8489 36.4588 94.1737 36.6477C94.4986 36.8333 94.878 36.9261 95.3122 36.9261C95.594 36.9261 95.8508 36.8864 96.0828 36.8068C96.3148 36.724 96.5154 36.6013 96.6844 36.4389C96.8534 36.2765 96.9827 36.076 97.0722 35.8374L98.4791 36.0909C98.3664 36.5052 98.1643 36.8681 97.8726 37.1797C97.5843 37.4879 97.2213 37.7282 96.7838 37.9006C96.3496 38.0696 95.8541 38.1541 95.2973 38.1541ZM103.44 38.1541C102.7 38.1541 102.064 37.9867 101.53 37.652C101 37.3139 100.592 36.8482 100.307 36.255C100.022 35.6617 99.8799 34.9822 99.8799 34.2166C99.8799 33.4411 100.026 32.7566 100.317 32.1634C100.609 31.5668 101.02 31.1011 101.55 30.7663C102.081 30.4316 102.705 30.2642 103.425 30.2642C104.005 30.2642 104.522 30.3719 104.976 30.5874C105.43 30.7995 105.796 31.0978 106.074 31.4822C106.356 31.8667 106.524 32.3158 106.577 32.8295H105.13C105.05 32.4716 104.868 32.1634 104.583 31.9048C104.301 31.6463 103.923 31.517 103.449 31.517C103.035 31.517 102.672 31.6264 102.361 31.8452C102.052 32.0606 101.812 32.3688 101.64 32.7699C101.467 33.1676 101.381 33.6383 101.381 34.1818C101.381 34.7386 101.466 35.2192 101.635 35.6236C101.804 36.0279 102.043 36.3411 102.351 36.5632C102.662 36.7853 103.029 36.8963 103.449 36.8963C103.731 36.8963 103.986 36.8449 104.215 36.7422C104.447 36.6361 104.641 36.4853 104.797 36.2898C104.956 36.0942 105.067 35.8589 105.13 35.5838H106.577C106.524 36.0777 106.363 36.5185 106.094 36.9062C105.826 37.294 105.466 37.599 105.016 37.821C104.568 38.0431 104.043 38.1541 103.44 38.1541ZM111.383 38.1541C110.667 38.1541 110.042 37.9901 109.509 37.6619C108.975 37.3338 108.561 36.8748 108.266 36.2848C107.971 35.6948 107.823 35.0054 107.823 34.2166C107.823 33.4245 107.971 32.7318 108.266 32.1385C108.561 31.5452 108.975 31.0845 109.509 30.7564C110.042 30.4283 110.667 30.2642 111.383 30.2642C112.099 30.2642 112.724 30.4283 113.257 30.7564C113.791 31.0845 114.205 31.5452 114.5 32.1385C114.795 32.7318 114.943 33.4245 114.943 34.2166C114.943 35.0054 114.795 35.6948 114.5 36.2848C114.205 36.8748 113.791 37.3338 113.257 37.6619C112.724 37.9901 112.099 38.1541 111.383 38.1541ZM111.388 36.9062C111.852 36.9062 112.236 36.7836 112.541 36.5384C112.846 36.2931 113.072 35.9666 113.217 35.5589C113.367 35.1513 113.441 34.7022 113.441 34.2116C113.441 33.7244 113.367 33.277 113.217 32.8693C113.072 32.4583 112.846 32.1286 112.541 31.88C112.236 31.6314 111.852 31.5071 111.388 31.5071C110.921 31.5071 110.533 31.6314 110.225 31.88C109.92 32.1286 109.693 32.4583 109.543 32.8693C109.398 33.277 109.325 33.7244 109.325 34.2116C109.325 34.7022 109.398 35.1513 109.543 35.5589C109.693 35.9666 109.92 36.2931 110.225 36.5384C110.533 36.7836 110.921 36.9062 111.388 36.9062ZM116.602 38V30.3636H118.039V31.5767H118.118C118.257 31.1657 118.503 30.8426 118.854 30.6072C119.209 30.3686 119.61 30.2493 120.057 30.2493C120.15 30.2493 120.259 30.2526 120.385 30.2592C120.514 30.2659 120.616 30.2741 120.688 30.2841V31.706C120.629 31.6894 120.523 31.6712 120.37 31.6513C120.218 31.6281 120.065 31.6165 119.913 31.6165C119.562 31.6165 119.248 31.6911 118.973 31.8402C118.701 31.986 118.486 32.1899 118.327 32.4517C118.168 32.7102 118.088 33.0052 118.088 33.3366V38H116.602ZM124.56 38.1491C123.944 38.1491 123.393 37.9917 122.91 37.6768C122.429 37.3587 122.051 36.9062 121.776 36.3196C121.504 35.7296 121.368 35.022 121.368 34.1967C121.368 33.3714 121.506 32.6655 121.781 32.0788C122.059 31.4922 122.441 31.0431 122.924 30.7315C123.408 30.42 123.957 30.2642 124.57 30.2642C125.044 30.2642 125.425 30.3438 125.714 30.5028C126.005 30.6586 126.231 30.8409 126.39 31.0497C126.552 31.2585 126.678 31.4425 126.767 31.6016H126.857V27.8182H128.343V38H126.892V36.8118H126.767C126.678 36.9742 126.549 37.1598 126.38 37.3686C126.214 37.5774 125.985 37.7597 125.694 37.9155C125.402 38.0713 125.024 38.1491 124.56 38.1491ZM124.888 36.8814C125.316 36.8814 125.677 36.7687 125.972 36.5433C126.27 36.3146 126.496 35.9981 126.648 35.5938C126.804 35.1894 126.882 34.7187 126.882 34.1818C126.882 33.6515 126.806 33.1875 126.653 32.7898C126.501 32.392 126.277 32.0821 125.982 31.8601C125.687 31.638 125.322 31.527 124.888 31.527C124.441 31.527 124.068 31.643 123.77 31.875C123.471 32.107 123.246 32.4235 123.093 32.8246C122.944 33.2256 122.87 33.678 122.87 34.1818C122.87 34.6922 122.946 35.1513 123.098 35.5589C123.251 35.9666 123.476 36.2898 123.775 36.5284C124.076 36.7637 124.447 36.8814 124.888 36.8814ZM136.187 32.228L134.84 32.4666C134.784 32.2943 134.694 32.1302 134.572 31.9744C134.452 31.8187 134.29 31.6911 134.084 31.5916C133.879 31.4922 133.622 31.4425 133.314 31.4425C132.893 31.4425 132.542 31.5369 132.26 31.7259C131.978 31.9115 131.837 32.1518 131.837 32.4467C131.837 32.7019 131.932 32.9074 132.121 33.0632C132.31 33.219 132.614 33.3466 133.035 33.446L134.248 33.7244C134.951 33.8868 135.475 34.1371 135.82 34.4751C136.164 34.8132 136.337 35.2524 136.337 35.7926C136.337 36.25 136.204 36.6577 135.939 37.0156C135.677 37.3703 135.311 37.6487 134.84 37.8509C134.373 38.053 133.831 38.1541 133.214 38.1541C132.359 38.1541 131.662 37.9718 131.121 37.6072C130.581 37.2393 130.25 36.7173 130.127 36.0412L131.564 35.8224C131.653 36.197 131.837 36.4804 132.116 36.6726C132.394 36.8615 132.757 36.956 133.204 36.956C133.692 36.956 134.081 36.8549 134.373 36.6527C134.664 36.4472 134.81 36.197 134.81 35.902C134.81 35.6634 134.721 35.4628 134.542 35.3004C134.366 35.138 134.096 35.0154 133.731 34.9325L132.439 34.6491C131.726 34.4867 131.199 34.2282 130.858 33.8736C130.52 33.5189 130.351 33.0698 130.351 32.5263C130.351 32.0755 130.477 31.6811 130.729 31.343C130.98 31.005 131.329 30.7415 131.773 30.5526C132.217 30.3603 132.726 30.2642 133.299 30.2642C134.124 30.2642 134.774 30.4432 135.248 30.8011C135.722 31.1558 136.035 31.6314 136.187 32.228Z" fill="#0D9B9E"/>
<path fill-rule="evenodd" clip-rule="evenodd" d="M50 66.5C50 73.4036 44.4033 79 37.5 79C30.5967 79 25 73.4036 25 66.5C25 59.5964 30.5967 54 37.5 54C44.4033 54 50 59.5964 50 66.5ZM29.0542 74.3049C27.1587 72.2546 26 69.5126 26 66.5C26 60.1487 31.1489 55 37.5 55C43.8511 55 49 60.1487 49 66.5C49 69.36 47.9561 71.976 46.2285 73.9879C44.5957 72.6226 42.5688 71.6494 40.3232 71.2301V69.9053C41.9268 68.577 43 66.22 43 63.85C43 60.2601 40.5376 58 37.5 58C34.4624 58 32 60.2601 32 63.85C32 66.526 33.3682 69.1857 35.3232 70.3662V71.2301C32.9077 71.6813 30.7451 72.7733 29.0542 74.3049Z" fill="#1EB6B9"/>
<rect x="55" y="57.5" width="50" height="7" rx="1" fill="#57D7DA"/>
<rect x="55" y="68.5" width="90" height="7" rx="1" fill="#57D7DA"/>
<path fill-rule="evenodd" clip-rule="evenodd" d="M50 99.5C50 106.404 44.4036 112 37.5 112C30.5964 112 25 106.404 25 99.5C25 92.5964 30.5964 87 37.5 87C44.4036 87 50 92.5964 50 99.5ZM46.2284 106.988C44.5958 105.623 42.5688 104.649 40.3232 104.23V102.885C40.9176 102.757 41.5108 102.585 42.0811 102.42C42.9707 102.162 43.8044 101.921 44.5 101.888C42.5885 101.615 42.7649 100.069 42.993 98.0706C43.1825 96.4098 43.4077 94.4364 42.5 92.621C41.5124 90.6457 39.5214 89.9406 37.75 90.0039C35.9786 89.9406 33.9876 90.6457 33 92.621C32.0923 94.4364 32.3175 96.4098 32.507 98.0706C32.7351 100.069 32.9115 101.615 31 101.888C31.6956 101.921 32.5293 102.162 33.4189 102.42C34.036 102.599 34.68 102.785 35.3232 102.915V104.23C32.9076 104.681 30.7449 105.773 29.054 107.305C27.1584 105.255 26 102.513 26 99.5C26 93.1487 31.1487 88 37.5 88C43.8513 88 49 93.1487 49 99.5C49 102.36 47.956 104.976 46.2284 106.988Z" fill="#1EB6B9"/>
<rect x="55" y="90.5" width="50" height="7" rx="1" fill="#57D7DA"/>
<rect x="55" y="101.5" width="90" height="7" rx="1" fill="#57D7DA"/>
<path fill-rule="evenodd" clip-rule="evenodd" d="M50 132.5C50 139.404 44.4036 145 37.5 145C30.5964 145 25 139.404 25 132.5C25 125.596 30.5964 120 37.5 120C44.4036 120 50 125.596 50 132.5ZM46.2284 139.988C44.5958 138.623 42.5688 137.649 40.3232 137.23V136.085C41.4954 135.968 42.6613 135.764 43.8111 135.473L44.2257 135.369C45.1715 135.129 45.6987 134.12 45.3547 133.207L43.3363 127.85C42.4635 125.534 40.2469 124 37.7714 124C35.8331 124 34.0842 125.164 33.3357 126.952L30.701 133.245C30.3301 134.131 30.8258 135.141 31.7536 135.389C32.9288 135.704 34.1222 135.927 35.3232 136.06V137.23C32.9076 137.681 30.7449 138.773 29.054 140.305C27.1584 138.255 26 135.513 26 132.5C26 126.149 31.1487 121 37.5 121C43.8513 121 49 126.149 49 132.5C49 135.36 47.956 137.976 46.2284 139.988Z" fill="#1EB6B9"/>
<rect x="55" y="123.5" width="50" height="7" rx="1" fill="#57D7DA"/>
<rect x="55" y="134.5" width="90" height="7" rx="1" fill="#57D7DA"/>
<path fill-rule="evenodd" clip-rule="evenodd" d="M50 165.5C50 172.404 44.4033 178 37.5 178C30.5967 178 25 172.404 25 165.5C25 158.596 30.5967 153 37.5 153C44.4033 153 50 158.596 50 165.5ZM29.0542 173.305C27.1587 171.255 26 168.513 26 165.5C26 159.149 31.1489 154 37.5 154C43.8511 154 49 159.149 49 165.5C49 168.36 47.9561 170.976 46.2285 172.988C44.5957 171.623 42.5688 170.649 40.3232 170.23V168.905C41.9268 167.577 43 165.22 43 162.85C43 159.26 40.5376 157 37.5 157C34.4624 157 32 159.26 32 162.85C32 165.526 33.3682 168.186 35.3232 169.366V170.23C32.9077 170.681 30.7451 171.773 29.0542 173.305Z" fill="#1EB6B9"/>
<rect x="55" y="156.5" width="50" height="7" rx="1" fill="#57D7DA"/>
<rect x="55" y="167.5" width="90" height="7" rx="1" fill="#57D7DA"/>
<path d="M182.789 24.8347C186.197 -10.667 213.367 -0.468254 219.71 9.09353C244.703 -17.0357 275.494 35.0592 258.052 56.2398C247.981 68.4694 256.581 78.8993 269.863 95.0069L269.981 95.1497C283.329 111.338 255.476 139.837 199.262 128.784C148.708 118.843 173.028 94.5618 182.789 83.6255C193.582 71.5333 174.837 64.3125 173.701 52.384C172.565 40.4554 180.692 46.6751 182.789 24.8347Z" fill="#333333"/>
<path d="M310.18 247.167C304.052 245.165 297.657 238.682 294.523 235.555L286.129 238.872C285.682 242.447 285.66 249.762 287.808 258.34C289.351 264.497 292.83 265.959 295.664 265.798C297.32 265.704 297.822 263.911 296.724 262.667C294.83 260.52 292.371 257.882 292.999 256C299.714 265.383 320.499 269 322.623 265.414C324.557 262.149 325.412 252.143 310.18 247.167Z" fill="#FFCAAC"/>
<path d="M257.533 101.306C252.243 99.5512 246.499 100.748 242.818 102.366L242.4 102.531C238.158 104.276 236.295 107.226 235.775 110.258C235.257 113.284 236.085 116.318 237.013 118.228L253.084 181.837L253.099 181.895L253.122 181.949C257.593 192.341 265.563 210.489 272.549 226.175C276.042 234.017 279.288 241.247 281.73 246.584C282.951 249.252 283.973 251.451 284.723 253.018C285.097 253.8 285.406 254.43 285.641 254.884C285.757 255.11 285.859 255.299 285.942 255.444C286.006 255.555 286.108 255.73 286.223 255.846C286.369 255.993 286.564 256.096 286.789 256.121C286.999 256.144 287.18 256.094 287.311 256.038C287.556 255.933 287.764 255.747 287.924 255.584C288.259 255.241 288.643 254.713 289.053 254.104C289.874 252.88 290.943 251.093 292.102 249.271C293.276 247.426 294.568 245.502 295.891 243.904C297.23 242.286 298.527 241.096 299.691 240.605L300.354 240.327L300.104 239.653L276.005 174.715C275.103 163.805 272.514 137.33 269.301 117.85L269.138 116.93C267.36 107.581 262.754 103.037 257.533 101.306Z" fill="white" stroke="#E8E8E8" stroke-width="1.5"/>
<path d="M125.691 102.642L131.859 122.167L120.756 126.072L115.821 116.96C112.12 117.394 104.224 115.659 102.25 105.246C100.276 94.8327 110.475 93.9649 115.821 94.8327C114.587 80.5148 124.457 80.5148 124.457 81.8164C124.457 83.118 123.223 94.8327 125.691 102.642Z" fill="#FFCAAC"/>
<path d="M191.154 103.307C190.312 103.026 189.353 103.134 188.355 103.506C187.354 103.88 186.247 104.544 185.056 105.479C182.672 107.348 179.848 110.376 176.717 114.624C170.607 122.913 163.25 135.945 155.626 154.377L135.527 118.197L135.169 117.552L134.519 117.9L117.574 126.962L116.916 127.314L117.266 127.974L144.636 179.757L144.664 179.81L144.7 179.858C146.773 182.603 150.839 185.478 156.317 185.204C161.627 184.939 168.078 181.725 175.178 172.966L175.867 172.101C190.473 153.448 204.557 134.107 209.775 126.764L210.106 126.297L209.744 125.854L191.497 103.544L191.36 103.376L191.154 103.307Z" fill="white" stroke="#E8E8E8" stroke-width="1.5"/>
<path d="M224.746 453.008C222.968 443.877 229.56 426.54 233.078 419.013C235.948 418.351 242.3 417.574 244.744 419.758C247.188 421.941 247.058 442.834 246.688 453.008H224.746Z" fill="#303940"/>
<path d="M208.941 320.659L214.246 297.03L190.511 281.6C188.37 291.806 184.368 315.258 185.485 327.41C186.881 342.599 179.342 395.401 178.504 411.314C177.834 424.045 166.683 441.694 161.191 448.927H175.991C180.831 441.694 190.511 426.938 190.511 425.781C190.511 424.334 194.979 401.188 204.473 375.39C212.068 354.751 210.616 330.303 208.941 320.659Z" fill="#FFCAAC"/>
<path d="M224.187 324.083C220.966 314.836 222.845 295.989 224.187 287.721H255.057L247.004 319.026C259.03 348.695 250.047 399.458 244.051 421.131C245.984 425.562 243.246 437.426 241.635 442.804C240.132 439.915 231.882 441.6 227.945 442.804C228.482 436.945 230.039 424.406 231.972 421.131C234.388 417.037 228.213 335.643 224.187 324.083Z" fill="#FFCAAC"/>
<path d="M185.628 179.502L202.669 169.277L233.91 173.822L246.975 222.104L258.336 276.066L254.359 314.124C218.915 317.305 188.468 312.799 177.676 310.148L185.628 179.502Z" fill="#005254"/>
<path d="M191.876 102.818C203.009 94.866 213.366 91.3631 217.153 90.6058C228.287 87.652 241.294 98.6528 246.407 104.522C245.744 128.948 242.26 179.388 233.626 185.75C224.992 192.112 199.734 188.401 188.184 185.75C184.776 161.42 180.743 110.771 191.876 102.818Z" fill="#1EB6B9"/>
<path d="M233.733 94.2871C242.898 97.2683 249.106 98.697 253.068 99.7344C255.027 100.247 256.506 100.681 257.499 101.182C258.002 101.435 258.436 101.733 258.748 102.114C259.076 102.515 259.243 102.976 259.251 103.488V103.507L259.25 103.525L255.935 200.469C264.213 227.611 265.738 272.419 265.334 294.257L265.321 294.945L264.634 294.991L222.032 297.831L221.345 297.877L221.241 297.196C206.228 198.471 222.241 121.464 232.804 94.7246L233.062 94.0684L233.733 94.2871Z" fill="white" stroke="#E8E8E8" stroke-width="1.5"/>
<path d="M210.714 94.2305C203.934 115.229 190.131 184.971 198.306 296.46L198.355 297.141L197.683 297.255C194.562 297.783 189.44 298.284 184.173 298.081C178.933 297.879 173.418 296.975 169.61 294.595L169.229 294.356L169.26 293.908L179.768 139.121L179.77 139.1L179.772 139.079C180.054 136.827 180.28 133.73 180.571 130.236C180.861 126.756 181.214 122.904 181.747 119.189C182.28 115.48 182.997 111.876 184.024 108.898C185.042 105.951 186.41 103.475 188.338 102.193L189.027 101.742C196.18 97.1318 204.089 94.2245 209.877 93.2598L211.093 93.0576L210.714 94.2305Z" fill="white" stroke="#E8E8E8" stroke-width="1.5"/>
<path d="M212.609 95.4339V79.2451L228.514 77.541V95.4339C228.514 98.7002 223.118 102.477 218.574 102.25C214.029 102.023 212.704 97.6113 212.609 95.4339Z" fill="#F7B793"/>
<path d="M192.445 49.4224C186.765 40.1068 208.066 21.6838 219.427 13.6367C223.119 30.6775 235.616 34.6537 239.308 38.0619C242.261 40.7884 243.189 49.0437 243.284 52.8306C245.651 45.6356 252.656 44.3102 254.644 49.4224C258.842 60.2149 247.355 67.5993 243.284 67.5993C241.485 73.4689 233.059 84.9809 213.747 84.0721C194.434 83.1632 191.499 60.5936 192.445 49.4224Z" fill="#FFCAAC"/>
<path d="M153.029 449.237C156.598 445.014 169.202 445.299 175.057 445.97C182.642 437.322 189.185 423.932 191.509 418.318L197.922 426.614L191.509 453.008H188.999V433.652L180.355 453.008H153.029V449.237Z" fill="#303940"/>
<path d="M211.695 55.7927C213.74 53.2934 213.683 51.1539 213.399 50.3965C215.103 52.5481 214.251 55.7927 212.547 59.0373C211.184 61.633 214.819 63.1483 216.807 63.5815C207.719 64.1496 209.139 58.9169 211.695 55.7927Z" fill="#E99E73"/>
<path d="M220.562 40.6185C223.213 39.7664 229.367 38.5736 232.775 40.6185C230.408 38.7251 224.652 36.0742 220.562 40.6185Z" fill="#333333"/>
<path d="M196.988 40.5716C199.639 39.7196 205.793 38.5267 209.201 40.5716C206.834 38.6782 201.078 36.0274 196.988 40.5716Z" fill="#333333"/>
<path fill-rule="evenodd" clip-rule="evenodd" d="M191.503 45.0802C191.384 47.2421 191.677 50.0871 192.855 52.5146C194.17 55.2254 196.591 57.4496 201.017 57.6554C203.289 57.7611 204.989 57.3384 206.264 56.6441C207.538 55.9503 208.455 54.9489 209.104 53.7903C210.326 51.6079 210.576 48.8989 210.396 46.9017C209.722 46.453 208.675 46.0527 207.282 45.7333C205.671 45.3638 203.741 45.1332 201.709 45.0063C198.09 44.7802 194.245 44.8888 191.503 45.0802ZM212.707 47.4297C212.798 49.6528 212.442 52.4795 211.086 54.9006C210.258 56.3786 209.052 57.7132 207.351 58.6395C205.651 59.5652 203.524 60.0466 200.911 59.9251C195.566 59.6765 192.449 56.8832 190.811 53.5065C189.212 50.2109 189.026 46.3978 189.327 43.8862L189.437 42.9677L190.359 42.8896C193.193 42.6494 197.652 42.4763 201.851 42.7386C203.949 42.8697 206.014 43.1113 207.79 43.5187C209.35 43.8764 210.811 44.3882 211.867 45.1576H217.61C218.666 44.3882 220.127 43.8764 221.687 43.5187C223.463 43.1113 225.527 42.8697 227.626 42.7386C231.824 42.4763 236.284 42.6494 239.117 42.8896L239.166 42.8937L247.451 44.3221L247.065 46.5612L240.26 45.388C240.335 47.7789 239.972 50.8153 238.666 53.5065C237.028 56.8832 233.911 59.6765 228.566 59.9251C225.953 60.0466 223.826 59.5652 222.126 58.6395C220.425 57.7132 219.219 56.3786 218.391 54.9006C217.035 52.4795 216.678 49.6528 216.77 47.4297H212.707ZM219.08 46.9017C218.9 48.8989 219.151 51.6079 220.373 53.7903C221.022 54.9489 221.939 55.9503 223.213 56.6441C224.488 57.3384 226.188 57.7611 228.46 57.6554C232.885 57.4496 235.307 55.2254 236.622 52.5146C237.8 50.0871 238.092 47.2421 237.973 45.0802C235.232 44.8888 231.387 44.7802 227.767 45.0063C225.736 45.1332 223.806 45.3638 222.195 45.7333C220.802 46.0527 219.755 46.453 219.08 46.9017Z" fill="#41261E"/>
<ellipse cx="226.526" cy="50.8426" rx="2.84013" ry="3.69218" fill="#333333"/>
<ellipse cx="202.1" cy="50.8426" rx="2.84013" ry="3.69218" fill="#333333"/>
<path d="M216.018 76.5246C208.917 77.0927 206.361 69.1403 206.361 68.5723C212.269 70.8444 220.751 69.519 224.254 68.5723C223.875 71.0337 221.698 76.0702 216.018 76.5246Z" fill="#C63435"/>
<path d="M223.62 68.7341C219.81 69.6561 211.938 70.7172 206.361 68.5723C206.361 68.581 206.362 68.5914 206.363 68.6035C208.178 70.7208 211.183 72.8205 215.738 72.5195C219.563 72.2668 222.071 70.5916 223.62 68.7341Z" fill="white"/>
</svg>
