<svg width="270" height="462" viewBox="0 0 270 462" fill="none" xmlns="http://www.w3.org/2000/svg">
<rect x="102" width="168" height="222" rx="16" fill="#BAF4F5"/>
<rect width="151" height="178" transform="translate(111 14)" fill="white"/>
<rect x="127" y="55" width="24.4248" height="24.4248" fill="#1EB6B9"/>
<rect x="158.859" y="55" width="24.4248" height="24.4248" fill="#BAF4F5"/>
<rect x="190.717" y="55" width="24.4248" height="24.4248" fill="#BAF4F5"/>
<rect x="222.576" y="55" width="24.4248" height="24.4248" fill="#BAF4F5"/>
<rect x="127" y="86.8594" width="24.4248" height="24.4248" fill="#BAF4F5"/>
<rect x="158.859" y="86.8594" width="24.4248" height="24.4248" fill="#BAF4F5"/>
<rect x="190.717" y="86.8594" width="24.4248" height="24.4248" fill="#BAF4F5"/>
<rect x="222.576" y="86.8594" width="24.4248" height="24.4248" fill="#BAF4F5"/>
<rect x="127" y="118.717" width="24.4248" height="24.4248" fill="#BAF4F5"/>
<rect x="158.859" y="118.717" width="24.4248" height="24.4248" fill="#BAF4F5"/>
<rect x="190.717" y="118.717" width="24.4248" height="24.4248" fill="#BAF4F5"/>
<rect x="222.576" y="118.717" width="24.4248" height="24.4248" fill="#BAF4F5"/>
<rect x="127" y="150.576" width="24.4248" height="24.4248" fill="#BAF4F5"/>
<rect x="158.859" y="150.576" width="24.4248" height="24.4248" fill="#BAF4F5"/>
<rect x="190.717" y="150.576" width="24.4248" height="24.4248" fill="#BAF4F5"/>
<rect x="222.576" y="150.576" width="24.4248" height="24.4248" fill="#BAF4F5"/>
<path d="M150.581 27.8182H152.446L155.687 35.733H155.807L159.048 27.8182H160.912V38H159.451V30.6321H159.356L156.354 37.9851H155.14L152.138 30.6271H152.043V38H150.581V27.8182ZM166.243 38.1541C165.527 38.1541 164.903 37.9901 164.369 37.6619C163.835 37.3338 163.421 36.8748 163.126 36.2848C162.831 35.6948 162.684 35.0054 162.684 34.2166C162.684 33.4245 162.831 32.7318 163.126 32.1385C163.421 31.5452 163.835 31.0845 164.369 30.7564C164.903 30.4283 165.527 30.2642 166.243 30.2642C166.959 30.2642 167.584 30.4283 168.118 30.7564C168.651 31.0845 169.065 31.5452 169.36 32.1385C169.655 32.7318 169.803 33.4245 169.803 34.2166C169.803 35.0054 169.655 35.6948 169.36 36.2848C169.065 36.8748 168.651 37.3338 168.118 37.6619C167.584 37.9901 166.959 38.1541 166.243 38.1541ZM166.248 36.9062C166.712 36.9062 167.097 36.7836 167.402 36.5384C167.707 36.2931 167.932 35.9666 168.078 35.5589C168.227 35.1513 168.301 34.7022 168.301 34.2116C168.301 33.7244 168.227 33.277 168.078 32.8693C167.932 32.4583 167.707 32.1286 167.402 31.88C167.097 31.6314 166.712 31.5071 166.248 31.5071C165.781 31.5071 165.393 31.6314 165.085 31.88C164.78 32.1286 164.553 32.4583 164.404 32.8693C164.258 33.277 164.185 33.7244 164.185 34.2116C164.185 34.7022 164.258 35.1513 164.404 35.5589C164.553 35.9666 164.78 36.2931 165.085 36.5384C165.393 36.7836 165.781 36.9062 166.248 36.9062ZM172.949 33.4659V38H171.462V30.3636H172.889V31.6065H172.983C173.159 31.2022 173.434 30.8774 173.809 30.6321C174.187 30.3868 174.662 30.2642 175.236 30.2642C175.756 30.2642 176.212 30.3736 176.603 30.5923C176.994 30.8078 177.297 31.1293 177.513 31.5568C177.728 31.9844 177.836 32.513 177.836 33.1428V38H176.349V33.3217C176.349 32.7682 176.205 32.3357 175.917 32.0241C175.628 31.7093 175.232 31.5518 174.729 31.5518C174.384 31.5518 174.077 31.6264 173.809 31.7756C173.544 31.9247 173.333 32.1435 173.177 32.4318C173.025 32.7169 172.949 33.0616 172.949 33.4659ZM187.377 27.8182V38H185.836V29.3594H185.777L183.341 30.9503V29.4787L185.881 27.8182H187.377ZM193.995 27.8182V38H192.453V29.3594H192.394L189.958 30.9503V29.4787L192.498 27.8182H193.995ZM204.551 27.8182H206.082V35.0369C206.082 35.6899 205.953 36.2483 205.694 36.7124C205.439 37.1764 205.079 37.531 204.615 37.7763C204.151 38.0182 203.608 38.1392 202.985 38.1392C202.411 38.1392 201.896 38.0348 201.438 37.826C200.984 37.6172 200.625 37.3139 200.36 36.9162C200.098 36.5152 199.967 36.0279 199.967 35.4545H201.493C201.493 35.7363 201.558 35.9799 201.687 36.1854C201.82 36.3909 202 36.5516 202.229 36.6676C202.461 36.7803 202.726 36.8366 203.024 36.8366C203.349 36.8366 203.624 36.7687 203.85 36.6328C204.078 36.4936 204.252 36.2898 204.372 36.0213C204.491 35.7528 204.551 35.4247 204.551 35.0369V27.8182ZM210.421 38.169C209.937 38.169 209.499 38.0795 209.108 37.9006C208.717 37.7183 208.407 37.4548 208.179 37.1101C207.953 36.7654 207.841 36.3428 207.841 35.8423C207.841 35.4115 207.923 35.0568 208.089 34.7784C208.255 34.5 208.479 34.2796 208.76 34.1172C209.042 33.9548 209.357 33.8321 209.705 33.7493C210.053 33.6664 210.408 33.6035 210.769 33.5604C211.226 33.5073 211.597 33.4643 211.882 33.4311C212.167 33.3946 212.375 33.3366 212.504 33.2571C212.633 33.1776 212.698 33.0483 212.698 32.8693V32.8345C212.698 32.4003 212.575 32.0639 212.33 31.8253C212.088 31.5866 211.727 31.4673 211.246 31.4673C210.746 31.4673 210.351 31.5784 210.063 31.8004C209.778 32.0192 209.581 32.2628 209.471 32.5312L208.074 32.2131C208.24 31.7491 208.482 31.3745 208.8 31.0895C209.122 30.8011 209.491 30.5923 209.909 30.4631C210.326 30.3305 210.766 30.2642 211.226 30.2642C211.531 30.2642 211.854 30.3007 212.196 30.3736C212.54 30.4432 212.862 30.5724 213.16 30.7614C213.462 30.9503 213.709 31.2204 213.901 31.5717C214.093 31.9197 214.189 32.3722 214.189 32.929V38H212.738V36.956H212.678C212.582 37.1482 212.438 37.3371 212.245 37.5227C212.053 37.7083 211.806 37.8625 211.505 37.9851C211.203 38.1077 210.842 38.169 210.421 38.169ZM210.744 36.9759C211.155 36.9759 211.506 36.8946 211.798 36.7322C212.093 36.5698 212.317 36.3577 212.469 36.0959C212.625 35.8307 212.703 35.5473 212.703 35.2457V34.2614C212.65 34.3144 212.547 34.3641 212.395 34.4105C212.245 34.4536 212.075 34.4917 211.882 34.5249C211.69 34.5547 211.503 34.5829 211.321 34.6094C211.138 34.6326 210.986 34.6525 210.863 34.669C210.575 34.7055 210.311 34.7668 210.073 34.853C209.837 34.9392 209.649 35.0634 209.506 35.2259C209.367 35.3849 209.297 35.5971 209.297 35.8622C209.297 36.2301 209.433 36.5085 209.705 36.6974C209.977 36.883 210.323 36.9759 210.744 36.9759ZM217.656 33.4659V38H216.169V30.3636H217.596V31.6065H217.691C217.866 31.2022 218.141 30.8774 218.516 30.6321C218.894 30.3868 219.369 30.2642 219.943 30.2642C220.463 30.2642 220.919 30.3736 221.31 30.5923C221.701 30.8078 222.004 31.1293 222.22 31.5568C222.435 31.9844 222.543 32.513 222.543 33.1428V38H221.056V33.3217C221.056 32.7682 220.912 32.3357 220.624 32.0241C220.335 31.7093 219.939 31.5518 219.436 31.5518C219.091 31.5518 218.784 31.6264 218.516 31.7756C218.251 31.9247 218.04 32.1435 217.884 32.4318C217.732 32.7169 217.656 33.0616 217.656 33.4659Z" fill="#0D9B9E"/>
<path d="M17.2807 270.718C2.18842 266.19 4.07496 241.791 6.90477 230.158C9.42013 227.642 14.2622 224.121 13.5076 230.158C12.5643 237.704 17.2807 249.966 19.1672 253.739C20.6764 256.758 18.5384 258.77 17.2807 259.399C20.2992 263.172 18.5384 268.517 17.2807 270.718Z" fill="#FFCAAC" stroke="#FFCAAC" stroke-width="1.85483"/>
<path d="M126.049 96.2981C121.521 91.0158 129.822 75.2317 134.538 68C139.066 68 134.386 78.6548 132.5 84C145.328 90.0369 143.028 96.6125 139.255 99.1279L138.312 114.22H126.992C128.565 110.447 130.577 101.58 126.049 96.2981Z" fill="#FFCAAC"/>
<path d="M39.9187 316.939L26.7129 266.945L63.5004 270.718V310.336V421.641L55.9542 425.414C54.6965 419.44 51.2379 403.908 47.4648 389.57C43.6917 375.233 40.8619 335.175 39.9187 316.939Z" fill="#FFCAAC"/>
<path d="M68.2157 349.952C68.9703 329.577 71.0455 291.784 71.9888 275.434H100.287C99.0296 306.247 94.8163 371.458 88.0248 385.796C81.2332 400.134 82.6796 420.068 84.2517 428.243L68.2157 423.527C72.9321 405.605 67.2725 375.42 68.2157 349.952Z" fill="#FFCAAC"/>
<path d="M54.0661 420.697C60.8576 416.17 66.3285 418.811 68.2151 420.697C71.045 423.841 76.3276 430.885 74.8183 433.903C73.3091 436.922 58.4681 437.047 51.2362 436.733C49.3497 433.274 47.2745 425.225 54.0661 420.697Z" fill="#303940"/>
<path d="M84.2513 421.642C83.4967 414.85 78.2772 415.039 75.7619 415.982C62.5561 415.982 69.159 431.075 67.2724 434.848C65.3859 438.621 62.5561 447.11 67.2724 456.543C71.0455 464.089 88.9676 463.146 90.8542 456.543C91.1686 452.77 91.2315 444.469 88.9676 441.451C86.1378 437.678 85.1945 430.131 84.2513 421.642Z" fill="#303940"/>
<path d="M27.4629 177.368L27.46 177.402L21.7998 238.715L21.7373 239.396H3.32422V165.091C2.85251 156.126 2.19303 142.268 1.74512 129.797C1.52101 123.557 1.35014 117.661 1.28223 112.898C1.21461 108.156 1.24753 104.486 1.44238 102.732L1.49414 102.37C1.80381 100.579 2.8912 99.1492 4.36621 98.0273C5.93131 96.837 7.97791 95.9556 10.1562 95.3057C14.5161 94.0049 19.5935 93.5762 22.9404 93.5762H23.5869L23.6816 94.2158L27.4551 119.685L27.4629 119.739V177.368Z" fill="white" stroke="#E8E8E8" stroke-width="1.5"/>
<path d="M83.7764 82.8027L108.151 92.4512L108.234 92.8467L115.894 129.528L125.352 105.456L125.539 104.98H139.882L139.993 105.597C140.247 106.993 140.241 108.886 140.055 111.088C139.868 113.302 139.495 115.879 138.991 118.666C137.984 124.241 136.446 130.697 134.792 136.848C133.138 142.999 131.364 148.858 129.885 153.243C129.146 155.434 128.477 157.268 127.93 158.589C127.657 159.247 127.408 159.794 127.19 160.198C127.083 160.399 126.974 160.582 126.865 160.73C126.788 160.837 126.656 161.006 126.469 161.124L126.386 161.171C117.257 165.735 110.894 168.974 106.195 170.556C101.473 172.145 98.1814 172.146 95.3838 169.904C94.031 168.82 92.8444 167.251 91.6631 165.224C90.4802 163.194 89.2745 160.656 87.9014 157.602C85.1487 151.478 81.6963 143.212 76.3291 132.478L76.2256 132.271L76.2568 132.043L82.7568 83.4004L82.8838 82.4492L83.7764 82.8027Z" fill="white" stroke="#E8E8E8" stroke-width="1.5"/>
<path d="M29.5431 292.414C10.6777 239.591 24.8268 202.489 34.2595 190.541C50.9239 178.593 87.8372 160.356 102.175 182.995C116.513 205.633 108.149 260.972 102.175 285.811C84.0642 297.885 46.2076 295.244 29.5431 292.414Z" fill="#005254"/>
<path d="M85.7832 74.0518L103.705 96.6904L104.046 97.1211L103.738 97.5752C99.5357 103.801 94.1581 114.373 91.7061 125.8C89.2527 137.233 89.7527 149.391 97.1084 158.954L97.4678 159.431C101.152 164.41 104.057 171.295 106.343 179.152C108.705 187.274 110.421 196.487 111.643 205.817C114.085 224.477 114.558 243.665 114.243 255.645L114.225 256.335L113.536 256.374L14.4922 262.033L13.8594 262.069L13.7188 261.452C11.8019 253.066 12.1696 243.348 13.7686 233.311C15.3686 223.266 18.21 212.851 21.2803 203.05C24.3474 193.259 27.6602 184.028 30.1865 176.42C31.4528 172.607 32.5228 169.198 33.2754 166.309C34.0314 163.406 34.4521 161.08 34.4521 159.412C34.4521 156.066 32.7023 151.255 30.002 145.678C27.3191 140.136 23.7673 133.97 20.2861 127.952C16.8133 121.948 13.4064 116.084 11.0479 111.188C9.86868 108.741 8.93743 106.508 8.3916 104.603C7.855 102.729 7.64983 101.037 8.0791 99.749L8.14551 99.5625C8.49689 98.6321 9.15489 97.697 10.0059 96.7754C10.9199 95.7855 12.0942 94.7705 13.4512 93.75C16.1651 91.7091 19.6688 89.6016 23.4336 87.5811C30.9669 83.538 39.6279 79.8002 45.3066 77.5918L45.4033 77.5537L45.5068 77.5439L85.124 73.7705L85.5303 73.7324L85.7832 74.0518Z" fill="white" stroke="#E8E8E8" stroke-width="1.5"/>
<path d="M20.9277 22.1515C33.6891 -8.23834 48.956 -1.28656 54.7701 7.5705C77.679 -16.6329 105.902 31.6224 89.9146 51.2419C80.6832 62.5702 88.5663 72.2314 100.741 87.1518L100.848 87.284C113.084 102.28 87.5534 128.678 36.0269 118.439C-10.3112 109.231 11.9803 86.7395 20.9276 76.6092C30.8206 65.4083 13.6385 58.7197 12.5972 47.6703C11.5558 36.6209 15.9995 33.8874 20.9277 22.1515Z" fill="#333333"/>
</svg>
