<svg width="27" height="27" viewBox="0 0 27 27" fill="none" xmlns="http://www.w3.org/2000/svg">
<circle cx="13.4742" cy="13.4782" r="5.88387" transform="rotate(-80.792 13.4742 13.4782)" fill="#FFE07D"/>
<path d="M13.481 7.59375C13.2037 7.59375 12.9313 7.61433 12.6641 7.6515C15.5271 8.04938 17.7316 10.5058 17.7316 13.4783C17.7316 16.4508 15.5271 18.9072 12.6641 19.3051C12.9312 19.3422 13.2036 19.3629 13.481 19.3629C16.731 19.3629 19.3656 16.7283 19.3656 13.4783C19.3656 10.2283 16.731 7.59375 13.481 7.59375Z" fill="#FFD064"/>
<path d="M13.4782 5.77318C13.1839 5.77318 12.9453 5.53462 12.9453 5.24034V0.53277C12.9453 0.23849 13.1838 0 13.4782 0C13.7725 0 14.011 0.23856 14.011 0.53277V5.24041C14.011 5.53462 13.7724 5.77318 13.4782 5.77318Z" fill="#FFE07D"/>
<path d="M12.5328 26.7732C12.2386 26.7732 12 26.5346 12 26.2403V21.5328C12 21.2385 12.2385 21 12.5328 21C12.8272 21 13.0657 21.2386 13.0657 21.5328V26.2404C13.0657 26.5346 12.8271 26.7732 12.5328 26.7732Z" fill="#FFE07D"/>
<path d="M26.4241 14.0119H21.7164C21.4222 14.0119 21.1836 13.7733 21.1836 13.4791C21.1836 13.1848 21.4221 12.9463 21.7164 12.9463H26.4241C26.7184 12.9463 26.9568 13.1848 26.9568 13.4791C26.9568 13.7733 26.7184 14.0119 26.4241 14.0119Z" fill="#FFE07D"/>
<path d="M5.24041 14.0119H0.53277C0.23849 14.0119 0 13.7733 0 13.4791C0 13.1848 0.23849 12.9463 0.53277 12.9463H5.24041C5.53469 12.9463 5.77318 13.1848 5.77318 13.4791C5.77325 13.7733 5.53469 14.0119 5.24041 14.0119Z" fill="#FFE07D"/>
<path d="M19.3043 8.18631C19.168 8.18631 19.0316 8.1343 18.9275 8.03028C18.7195 7.82224 18.7195 7.48484 18.9275 7.2768L22.2563 3.94802C22.4644 3.73998 22.8017 3.73998 23.0098 3.94802C23.2179 4.15606 23.2179 4.49346 23.0098 4.7015L19.6811 8.03028C19.577 8.13423 19.4407 8.18631 19.3043 8.18631Z" fill="#FFE07D"/>
<path d="M3.53284 23.3943C3.39655 23.3943 3.26012 23.3423 3.15603 23.2383C2.94799 23.0302 2.94799 22.6928 3.15603 22.4848L6.48481 19.156C6.69292 18.948 7.03025 18.948 7.23836 19.156C7.4464 19.3641 7.4464 19.7015 7.23836 19.9095L3.90958 23.2383C3.80556 23.3422 3.6692 23.3943 3.53284 23.3943Z" fill="#FFE07D"/>
<path d="M22.633 23.1659C22.4967 23.1659 22.3603 23.1139 22.2563 23.0099L18.9275 19.681C18.7195 19.473 18.7195 19.1356 18.9275 18.9276C19.1357 18.7195 19.473 18.7195 19.6811 18.9276L23.0098 22.2564C23.2179 22.4645 23.2179 22.8019 23.0098 23.0099C22.9058 23.1138 22.7694 23.1659 22.633 23.1659Z" fill="#FFE07D"/>
<path d="M7.65264 8.18631C7.51635 8.18631 7.37992 8.1343 7.27583 8.03028L3.94705 4.7015C3.73901 4.49346 3.73901 4.15606 3.94705 3.94802C4.15516 3.73998 4.49249 3.73998 4.7006 3.94802L8.02938 7.2768C8.23742 7.48484 8.23742 7.82224 8.02938 8.03028C7.92536 8.13423 7.789 8.18631 7.65264 8.18631Z" fill="#FFE07D"/>
<path d="M10.3265 6.40073C10.1174 6.40073 9.91906 6.27683 9.83408 6.07166L8.93332 3.89704C8.82062 3.62516 8.94977 3.31352 9.22165 3.20089C9.49346 3.08819 9.80517 3.21741 9.9178 3.48922L10.8186 5.66384C10.9312 5.93572 10.8021 6.24736 10.5302 6.35999C10.4636 6.38764 10.3945 6.40073 10.3265 6.40073Z" fill="#FFF0AF"/>
<path d="M8.53285 24.2406C8.74194 24.2406 8.94032 24.1167 9.0253 23.9115L9.92606 21.7369C10.0388 21.465 9.90961 21.1534 9.63773 21.0407C9.36592 20.928 9.05421 21.0573 8.94158 21.3291L8.04082 23.5037C7.92819 23.7756 8.05727 24.0872 8.32915 24.1998C8.39579 24.2275 8.46488 24.2406 8.53285 24.2406Z" fill="#FFF0AF"/>
<path d="M5.86752 10.8592C5.79955 10.8592 5.73053 10.8461 5.66382 10.8185L3.4892 9.91777C3.21732 9.80514 3.08824 9.4935 3.20087 9.22162C3.31357 8.94974 3.62528 8.82066 3.89702 8.93329L6.07164 9.83405C6.34352 9.94668 6.4726 10.2583 6.35997 10.5302C6.27492 10.7354 6.07661 10.8592 5.86752 10.8592Z" fill="#FFF0AF"/>
<path d="M23.264 18.0652C23.196 18.0652 23.127 18.0521 23.0603 18.0245L20.8857 17.1238C20.6138 17.0111 20.4847 16.6995 20.5974 16.4276C20.71 16.1557 21.0217 16.0268 21.2934 16.1393L23.4681 17.04C23.7399 17.1527 23.869 17.4644 23.7564 17.7362C23.6715 17.9413 23.4731 18.0652 23.264 18.0652Z" fill="#FFF0AF"/>
<path d="M21.0898 10.8593C20.8807 10.8593 20.6823 10.7354 20.5974 10.5302C20.4847 10.2584 20.6138 9.9467 20.8857 9.83407L23.0603 8.93331C23.3322 8.82061 23.6438 8.94983 23.7564 9.22164C23.8691 9.49345 23.7399 9.80516 23.4681 9.91779L21.2934 10.8185C21.2269 10.8463 21.1578 10.8593 21.0898 10.8593Z" fill="#FFF0AF"/>
<path d="M3.53316 17.9667C3.32407 17.9667 3.12569 17.8428 3.04071 17.6376C2.92808 17.3658 3.05716 17.0541 3.32904 16.9415L5.50366 16.0407C5.77554 15.928 6.08718 16.0573 6.19974 16.3291C6.31244 16.6009 6.18329 16.9126 5.91141 17.0252L3.73679 17.926C3.67022 17.9537 3.60113 17.9667 3.53316 17.9667Z" fill="#FFF0AF"/>
<path d="M16.6324 6.40061C16.5644 6.40061 16.4954 6.38752 16.4287 6.35994C16.1568 6.24731 16.0277 5.93567 16.1404 5.66379L17.0411 3.48917C17.1538 3.21729 17.4656 3.08828 17.7373 3.20084C18.0091 3.31347 18.1382 3.62511 18.0256 3.89699L17.1248 6.07154C17.0398 6.27671 16.8415 6.40061 16.6324 6.40061Z" fill="#FFF0AF"/>
<path d="M17.434 24.2405C17.502 24.2405 17.571 24.2274 17.6377 24.1998C17.9096 24.0872 18.0388 23.7755 17.9261 23.5036L17.0253 21.329C16.9126 21.0571 16.6008 20.9281 16.3291 21.0407C16.0573 21.1533 15.9282 21.465 16.0408 21.7368L16.9416 23.9114C17.0266 24.1166 17.2249 24.2405 17.434 24.2405Z" fill="#FFF0AF"/>
</svg>
