<svg width="32" height="32" viewBox="0 0 32 32" fill="none" xmlns="http://www.w3.org/2000/svg">
<path d="M24.4347 20.0173C28.3116 18.5211 31.062 14.7588 31.062 10.3542C31.062 10.3484 31.062 10.3427 31.062 10.3369C31.0614 9.9825 30.5764 9.88438 30.4315 10.2079C29.2947 12.7459 26.741 14.5108 23.7766 14.4958C19.8206 14.4757 16.5862 11.2414 16.5662 7.28538C16.5512 4.32094 18.3161 1.76725 20.8541 0.630437C21.1775 0.485563 21.0795 0.000625 20.725 0C20.7193 0 20.7135 0 20.7077 0C14.9893 0 10.3536 4.63562 10.3535 10.3541C10.3535 11.8301 10.6633 13.2346 11.2213 14.506V21.7437H24.4057L24.4347 20.0173Z" fill="#FFE07D"/>
<path d="M24.4347 20.0173C28.3116 18.5211 31.062 14.7588 31.062 10.3542C31.062 10.3484 31.062 10.3427 31.062 10.3369C31.0614 9.9825 30.5764 9.88438 30.4315 10.2079C29.2947 12.7459 26.741 14.5108 23.7766 14.4958C19.8206 14.4757 16.5862 11.2414 16.5662 7.28538C16.5512 4.32094 18.3161 1.76725 20.8541 0.630437C21.1775 0.485563 21.0795 0.000625 20.725 0C20.7193 0 20.7135 0 20.7077 0C14.9893 0 10.3536 4.63562 10.3535 10.3541C10.3535 11.8301 10.6633 13.2346 11.2213 14.506V21.7437H24.4057L24.4347 20.0173Z" fill="#FFE07D"/>
<path d="M19.4169 0.630437C16.8789 1.76725 15.114 4.32094 15.129 7.28538C15.149 11.2414 18.3834 14.4757 22.3394 14.4958C22.5947 14.4971 22.8467 14.4842 23.0953 14.4598C19.456 14.097 16.5854 11.0116 16.5665 7.28538C16.5515 4.32094 18.3164 1.76725 20.8544 0.630437C21.1778 0.485563 21.0798 0.000625 20.7253 0C20.7196 0 20.7138 0 20.708 0C20.297 0 19.8918 0.02475 19.4933 0.0713125C19.6645 0.211375 19.6639 0.51975 19.4169 0.630437Z" fill="#FFD064"/>
<path d="M31.0625 10.3375C31.0619 9.98309 30.5769 9.88496 30.4321 10.2085C30.1937 10.7405 29.8924 11.238 29.5389 11.6928C29.0463 15.5098 26.4756 18.6756 22.9977 20.0179L22.9688 21.7443H24.4062L24.4353 20.0179C28.3122 18.5216 31.0625 14.7593 31.0625 10.3547C31.0625 10.349 31.0625 10.3432 31.0625 10.3375Z" fill="#FFD064"/>
<path d="M26.9208 22.7794H26.9194C26.8431 22.7794 26.7775 22.7281 26.7561 22.6548C26.2545 20.9321 24.6638 19.6732 22.7791 19.6732C22.0745 19.6732 21.4112 19.8497 20.8305 20.1603C20.6028 20.2821 20.3203 20.2185 20.1756 20.0047C19.6172 19.1799 18.6731 18.6377 17.6021 18.6377C17.3516 18.6377 17.1081 18.6675 16.8749 18.7236C16.6222 18.7843 16.3613 18.6486 16.2796 18.4018C15.5295 16.1332 13.392 14.4961 10.8719 14.4961C7.72677 14.4961 5.17708 17.0457 5.17708 20.1909C5.17708 20.2623 5.17889 20.3333 5.18189 20.404C5.18483 20.4739 5.16189 20.5425 5.11883 20.5977L5.11439 20.6034C5.06045 20.6725 4.97877 20.7133 4.8912 20.7181C2.13558 20.8682 -0.0468602 23.1718 0.000764836 25.9758C0.0489523 28.8103 2.40708 31.0627 5.24208 31.0627H26.8591C29.1353 31.0627 31.0326 29.2521 31.0621 26.976C31.0921 24.6635 29.2265 22.7794 26.9208 22.7794Z" fill="#ECF4FF"/>
<path fill-rule="evenodd" clip-rule="evenodd" d="M26.9208 22.7794H26.9194C26.8431 22.7794 26.7775 22.7281 26.7561 22.6548C26.2545 20.9321 24.6638 19.6732 22.7791 19.6732C22.0745 19.6732 21.4112 19.8497 20.8305 20.1603C20.6028 20.2821 20.3203 20.2185 20.1756 20.0047C19.6172 19.1799 18.6731 18.6377 17.6021 18.6377C17.3516 18.6377 17.1081 18.6675 16.8749 18.7236C16.6222 18.7843 16.3613 18.6486 16.2796 18.4018C15.5295 16.1332 13.392 14.4961 10.8719 14.4961C7.72677 14.4961 5.17708 17.0457 5.17708 20.1909C5.17708 20.2623 5.17889 20.3333 5.18189 20.404C5.18483 20.4739 5.16189 20.5425 5.11883 20.5977L5.11439 20.6034C5.06045 20.6725 4.97877 20.7133 4.8912 20.7181C2.13558 20.8682 -0.0468602 23.1718 0.000764836 25.9758C0.0489523 28.8103 2.40708 31.0627 5.24208 31.0627H26.8591C29.1353 31.0627 31.0326 29.2521 31.0621 26.976C31.0921 24.6635 29.2265 22.7794 26.9208 22.7794Z" fill="#63D4FF"/>
<path d="M26.9205 22.7801H26.919C26.8428 22.7801 26.7771 22.7288 26.7557 22.6555C26.2541 20.9328 24.6635 19.6738 22.7788 19.6738C22.5337 19.6738 22.2939 19.6956 22.0605 19.7366C23.6215 20.01 24.8819 21.1571 25.3182 22.6555C25.3395 22.7288 25.4052 22.7801 25.4815 22.7801H25.483C27.7887 22.7801 29.6543 24.6641 29.6243 26.9767C29.5948 29.2528 27.6975 31.0634 25.4212 31.0634H26.8587C29.1349 31.0634 31.0322 29.2528 31.0618 26.9767C31.0918 24.6641 29.2262 22.7801 26.9205 22.7801Z" fill="#00ACED"/>
<path d="M9.31836 2.53928H9.88505V3.10597C9.88505 3.36484 10.0949 3.57472 10.3538 3.57472C10.6127 3.57472 10.8225 3.36484 10.8225 3.10597V2.53928H11.3892C11.6481 2.53928 11.8579 2.32941 11.8579 2.07053C11.8579 1.81166 11.6481 1.60178 11.3892 1.60178H10.8225V1.03516C10.8225 0.776281 10.6127 0.566406 10.3538 0.566406C10.0949 0.566406 9.88505 0.776281 9.88505 1.03516V1.60178H9.31836C9.05942 1.60178 8.84961 1.81166 8.84961 2.07053C8.84961 2.32941 9.05942 2.53928 9.31836 2.53928Z" fill="#223385"/>
<path d="M5.17578 8.23466C5.43472 8.23466 5.64453 8.02478 5.64453 7.76591V6.73047C5.64453 6.47159 5.43472 6.26172 5.17578 6.26172C4.91684 6.26172 4.70703 6.47159 4.70703 6.73047V7.76591C4.70703 8.02478 4.91684 8.23466 5.17578 8.23466Z" fill="#223385"/>
<path d="M5.17578 12.3753C5.43472 12.3753 5.64453 12.1654 5.64453 11.9065V10.8711C5.64453 10.6122 5.43472 10.4023 5.17578 10.4023C4.91684 10.4023 4.70703 10.6122 4.70703 10.8711V11.9065C4.70703 12.1654 4.91684 12.3753 5.17578 12.3753Z" fill="#223385"/>
<path d="M6.73047 9.78711H7.76584C8.02478 9.78711 8.23459 9.57723 8.23459 9.31836C8.23459 9.05948 8.02478 8.84961 7.76584 8.84961H6.73047C6.47153 8.84961 6.26172 9.05948 6.26172 9.31836C6.26172 9.57723 6.47153 9.78711 6.73047 9.78711Z" fill="#223385"/>
<path d="M2.58789 9.78711H3.62327C3.8822 9.78711 4.09202 9.57723 4.09202 9.31836C4.09202 9.05948 3.8822 8.84961 3.62327 8.84961H2.58789C2.32895 8.84961 2.11914 9.05948 2.11914 9.31836C2.11914 9.57723 2.32895 9.78711 2.58789 9.78711Z" fill="#223385"/>
<path d="M25.8848 5.12723C26.1437 5.12723 26.3535 4.91736 26.3535 4.65848V3.62305C26.3535 3.36417 26.1437 3.1543 25.8848 3.1543C25.6258 3.1543 25.416 3.36417 25.416 3.62305V4.65848C25.416 4.91736 25.6258 5.12723 25.8848 5.12723Z" fill="#223385"/>
<path d="M25.8848 9.26981C26.1437 9.26981 26.3535 9.05994 26.3535 8.80106V7.76562C26.3535 7.50675 26.1437 7.29688 25.8848 7.29688C25.6258 7.29688 25.416 7.50675 25.416 7.76562V8.80106C25.416 9.05994 25.6258 9.26981 25.8848 9.26981Z" fill="#223385"/>
<path d="M27.4375 6.68164H28.4729C28.7318 6.68164 28.9416 6.47177 28.9416 6.21289C28.9416 5.95402 28.7318 5.74414 28.4729 5.74414H27.4375C27.1786 5.74414 26.9688 5.95402 26.9688 6.21289C26.9688 6.47183 27.1786 6.68164 27.4375 6.68164Z" fill="#223385"/>
<path d="M23.2969 6.68164H24.3322C24.5912 6.68164 24.801 6.47177 24.801 6.21289C24.801 5.95402 24.5912 5.74414 24.3322 5.74414H23.2969C23.0379 5.74414 22.8281 5.95402 22.8281 6.21289C22.8281 6.47183 23.0379 6.68164 23.2969 6.68164Z" fill="#223385"/>
</svg>
