<svg width="36" height="36" viewBox="0 0 36 36" fill="none" xmlns="http://www.w3.org/2000/svg">
<circle cx="22.3804" cy="13.4772" r="5.88387" transform="rotate(-80.792 22.3804 13.4772)" fill="#FFE07D"/>
<path d="M22.3873 7.59375C22.1099 7.59375 21.8375 7.61433 21.5703 7.6515C24.4334 8.04938 26.6379 10.5058 26.6379 13.4783C26.6379 16.4508 24.4334 18.9072 21.5703 19.3051C21.8374 19.3422 22.1099 19.3629 22.3873 19.3629C25.6372 19.3629 28.2718 16.7283 28.2718 13.4783C28.2718 10.2283 25.6372 7.59375 22.3873 7.59375Z" fill="#FFD064"/>
<path d="M22.3844 5.77318C22.0901 5.77318 21.8516 5.53462 21.8516 5.24034V0.53277C21.8516 0.23849 22.0901 0 22.3844 0C22.6788 0 22.9172 0.23856 22.9172 0.53277V5.24041C22.9172 5.53462 22.6787 5.77318 22.3844 5.77318Z" fill="#FFE07D"/>
<path d="M35.3303 14.0109H30.6227C30.3284 14.0109 30.0898 13.7724 30.0898 13.4781C30.0898 13.1838 30.3283 12.9453 30.6227 12.9453H35.3303C35.6246 12.9453 35.8631 13.1839 35.8631 13.4781C35.8631 13.7724 35.6246 14.0109 35.3303 14.0109Z" fill="#FFE07D"/>
<path d="M14.1467 14.0109H9.43902C9.14474 14.0109 8.90625 13.7724 8.90625 13.4781C8.90625 13.1838 9.14474 12.9453 9.43902 12.9453H14.1467C14.4409 12.9453 14.6794 13.1839 14.6794 13.4781C14.6795 13.7724 14.4409 14.0109 14.1467 14.0109Z" fill="#FFE07D"/>
<path d="M28.2106 8.18534C28.0743 8.18534 27.9379 8.13333 27.8338 8.02931C27.6257 7.82127 27.6257 7.48387 27.8338 7.27583L31.1625 3.94705C31.3707 3.73901 31.708 3.73901 31.9161 3.94705C32.1241 4.15509 32.1241 4.49249 31.9161 4.70053L28.5873 8.02931C28.4833 8.13326 28.3469 8.18534 28.2106 8.18534Z" fill="#FFE07D"/>
<path d="M31.5393 23.1659C31.4029 23.1659 31.2666 23.1139 31.1625 23.0099L27.8338 19.681C27.6257 19.473 27.6257 19.1356 27.8338 18.9276C28.0419 18.7195 28.3793 18.7195 28.5873 18.9276L31.9161 22.2564C32.1241 22.4645 32.1241 22.8019 31.9161 23.0099C31.812 23.1138 31.6756 23.1659 31.5393 23.1659Z" fill="#FFE07D"/>
<path d="M16.5589 8.18534C16.4226 8.18534 16.2862 8.13333 16.1821 8.02931L12.8533 4.70053C12.6453 4.49249 12.6453 4.15509 12.8533 3.94705C13.0614 3.73901 13.3987 3.73901 13.6068 3.94705L16.9356 7.27583C17.1437 7.48387 17.1437 7.82127 16.9356 8.02931C16.8316 8.13326 16.6952 8.18534 16.5589 8.18534Z" fill="#FFE07D"/>
<path d="M19.2328 6.40073C19.0237 6.40073 18.8253 6.27683 18.7403 6.07166L17.8396 3.89704C17.7269 3.62516 17.856 3.31352 18.1279 3.20089C18.3997 3.08819 18.7114 3.21741 18.824 3.48922L19.7248 5.66384C19.8374 5.93572 19.7084 6.24736 19.4365 6.35999C19.3698 6.38764 19.3007 6.40073 19.2328 6.40073Z" fill="#FFF0AF"/>
<path d="M14.7738 10.8592C14.7058 10.8592 14.6368 10.8461 14.5701 10.8185L12.3954 9.91777C12.1236 9.80514 11.9945 9.4935 12.1071 9.22162C12.2198 8.94974 12.5315 8.82066 12.8033 8.93329L14.9779 9.83405C15.2498 9.94668 15.3788 10.2583 15.2662 10.5302C15.1812 10.7354 14.9829 10.8592 14.7738 10.8592Z" fill="#FFF0AF"/>
<path d="M32.1703 18.0662C32.1023 18.0662 32.0333 18.0531 31.9666 18.0255L29.7919 17.1247C29.5201 17.0121 29.391 16.7005 29.5036 16.4286C29.6162 16.1567 29.9279 16.0278 30.1997 16.1403L32.3743 17.041C32.6462 17.1537 32.7753 17.4654 32.6626 17.7372C32.5777 17.9423 32.3793 18.0662 32.1703 18.0662Z" fill="#FFF0AF"/>
<path d="M29.9961 10.8593C29.787 10.8593 29.5886 10.7354 29.5036 10.5302C29.391 10.2584 29.5201 9.9467 29.7919 9.83407L31.9666 8.93331C32.2384 8.82061 32.5501 8.94983 32.6626 9.22164C32.7753 9.49345 32.6462 9.80516 32.3743 9.91779L30.1997 10.8185C30.1331 10.8463 30.064 10.8593 29.9961 10.8593Z" fill="#FFF0AF"/>
<path d="M25.5386 6.40061C25.4707 6.40061 25.4016 6.38752 25.3349 6.35994C25.0631 6.24731 24.9339 5.93567 25.0466 5.66379L25.9474 3.48917C26.0601 3.21729 26.3718 3.08828 26.6435 3.20084C26.9154 3.31347 27.0445 3.62511 26.9318 3.89699L26.031 6.07154C25.946 6.27671 25.7477 6.40061 25.5386 6.40061Z" fill="#FFF0AF"/>
<path d="M30.5995 26.425H30.5979C30.5111 26.425 30.4365 26.3667 30.4122 26.2834C29.842 24.3252 28.034 22.8942 25.8918 22.8942C25.0908 22.8942 24.337 23.0949 23.6769 23.448C23.4182 23.5864 23.097 23.5141 22.9325 23.2711C22.2978 22.3336 21.2247 21.7173 20.0074 21.7173C19.7227 21.7173 19.4459 21.7512 19.1808 21.815C18.8936 21.8841 18.597 21.7297 18.5042 21.4492C17.6516 18.8706 15.222 17.0098 12.3575 17.0098C8.78258 17.0098 5.88451 19.9078 5.88451 23.4827C5.88451 23.5639 5.88661 23.6446 5.88997 23.7249C5.89333 23.8044 5.86722 23.8824 5.81829 23.9451L5.81325 23.9516C5.75193 24.0301 5.65911 24.0765 5.55957 24.0819C2.42742 24.2526 -0.0533092 26.8709 0.000870826 30.058C0.0556108 33.28 2.73598 35.8403 5.95843 35.8403H30.5294C33.1167 35.8403 35.2732 33.7822 35.3068 31.1951C35.3408 28.5666 33.2202 26.425 30.5995 26.425Z" fill="#ECF4FF"/>
<path fill-rule="evenodd" clip-rule="evenodd" d="M30.5995 26.425H30.5979C30.5111 26.425 30.4365 26.3667 30.4122 26.2834C29.842 24.3252 28.034 22.8942 25.8918 22.8942C25.0908 22.8942 24.337 23.0949 23.6769 23.448C23.4182 23.5864 23.097 23.5141 22.9325 23.2711C22.2978 22.3336 21.2247 21.7173 20.0074 21.7173C19.7227 21.7173 19.4459 21.7512 19.1808 21.815C18.8936 21.8841 18.597 21.7297 18.5042 21.4492C17.6516 18.8706 15.222 17.0098 12.3575 17.0098C8.78258 17.0098 5.88451 19.9078 5.88451 23.4827C5.88451 23.5639 5.88661 23.6446 5.88997 23.7249C5.89333 23.8044 5.86722 23.8824 5.81829 23.9451L5.81325 23.9516C5.75193 24.0301 5.65911 24.0765 5.55957 24.0819C2.42742 24.2526 -0.0533092 26.8709 0.000870826 30.058C0.0556108 33.28 2.73598 35.8403 5.95843 35.8403H30.5294C33.1167 35.8403 35.2732 33.7822 35.3068 31.1951C35.3408 28.5666 33.2202 26.425 30.5995 26.425Z" fill="#63D4FF"/>
<path d="M30.6002 26.4253H30.5986C30.5119 26.4253 30.4373 26.367 30.413 26.2837C29.8428 24.3255 28.0348 22.8945 25.8926 22.8945C25.6141 22.8945 25.3414 22.9193 25.0762 22.9658C26.8505 23.2765 28.2831 24.5803 28.779 26.2837C28.8033 26.3669 28.8779 26.4253 28.9647 26.4253H28.9663C31.587 26.4253 33.7076 28.5668 33.6735 31.1954C33.64 33.7825 31.4833 35.8405 28.8961 35.8405H30.53C33.1173 35.8405 35.2738 33.7825 35.3074 31.1954C35.3415 28.5668 33.221 26.4253 30.6002 26.4253Z" fill="#00ACED"/>
<path d="M11.2355 29.9564C11.2355 30.2507 11.474 30.4893 11.7682 30.4893C12.0625 30.4893 12.301 30.2508 12.301 29.9564C12.301 26.3128 9.47426 23.3171 5.89866 23.0469C5.88907 23.1912 5.88368 23.3367 5.88368 23.4834C5.88368 23.5646 5.88578 23.6452 5.88914 23.7255C5.8925 23.805 5.86639 23.883 5.81746 23.9457L5.81242 23.9523C5.7511 24.0308 5.65828 24.0772 5.55874 24.0826C5.51149 24.0852 5.46494 24.0901 5.41797 24.0937C8.62999 24.1189 11.2355 26.7387 11.2355 29.9564Z" fill="#00ACED"/>
<path d="M19.1221 21.8258C18.8541 21.8623 18.5906 21.7107 18.5042 21.4493C18.4507 21.2875 18.3909 21.1285 18.3253 20.9727C16.3576 21.6678 14.9434 23.5456 14.9434 25.7483C14.9434 26.0426 15.1819 26.2812 15.4761 26.2812C15.7703 26.2812 16.0089 26.0427 16.0089 25.7483C16.0089 23.8478 17.342 22.2374 19.122 21.8288V21.8258H19.1221Z" fill="#00ACED"/>
<path d="M26.425 31.3981C26.425 31.1038 26.1864 30.8652 25.8922 30.8652C25.598 30.8652 25.3594 31.1037 25.3594 31.3981C25.3594 33.2194 26.2487 34.8363 27.6154 35.8393H30.5296C30.5867 35.8393 30.6433 35.8371 30.6998 35.8351C28.3278 35.7471 26.425 33.7912 26.425 31.3981Z" fill="#00ACED"/>
</svg>
